<svg width="984" height="587" viewBox="0 0 984 587" fill="none" xmlns="http://www.w3.org/2000/svg">
<g clip-path="url(#clip0)">
<path d="M819.238 581.297C810.246 573.698 804.783 561.695 806.216 550.009C807.648 538.323 816.521 527.581 828.029 525.099C839.538 522.618 852.657 529.487 856.152 540.729C858.076 519.055 860.293 496.472 871.816 478.014C882.251 461.301 900.323 449.342 919.91 447.203C939.496 445.063 960.118 453.144 972.333 468.603C984.548 484.062 987.539 506.537 978.984 524.285C972.682 537.36 961.07 547.09 948.905 555.007C909.593 580.371 862.444 590.686 816.133 584.053" fill="#F2F2F2"/>
<path d="M952.964 453.592C936.803 466.755 921.977 481.478 908.7 497.546C887.922 522.607 871.109 550.704 858.845 580.86C857.947 583.06 861.519 584.017 862.407 581.842C882.473 532.833 914.506 489.637 955.577 456.204C957.421 454.702 954.794 452.102 952.964 453.592V453.592Z" fill="white"/>
<path d="M483.5 37C483.499 37.265 483.394 37.5188 483.206 37.7062C483.019 37.8936 482.765 37.9992 482.5 38H482.02C481.28 37.36 480.56 36.69 479.86 36H482.5C482.765 36.0008 483.019 36.1064 483.206 36.2938C483.394 36.4811 483.499 36.735 483.5 37Z" fill="#F2F2F2"/>
<path d="M507.5 0H256.5C254.644 0.00206189 252.865 0.740213 251.553 2.05252C250.24 3.36483 249.502 5.14412 249.5 7V143C249.502 144.856 250.24 146.635 251.553 147.947C252.865 149.26 254.644 149.998 256.5 150H507.5C509.356 149.998 511.135 149.26 512.447 147.947C513.76 146.635 514.498 144.856 514.5 143V7C514.498 5.14412 513.76 3.36483 512.447 2.05252C511.135 0.740213 509.356 0.00206189 507.5 0V0ZM512.5 143C512.499 144.326 511.973 145.597 511.035 146.535C510.097 147.472 508.826 147.999 507.5 148H256.5C255.174 147.999 253.903 147.472 252.965 146.535C252.027 145.597 251.501 144.326 251.5 143V7C251.501 5.67408 252.027 4.40261 252.965 3.46504C253.903 2.52748 255.174 2.00053 256.5 2H507.5C508.826 2.00053 510.097 2.52748 511.035 3.46504C511.973 4.40261 512.499 5.67408 512.5 7V143Z" fill="#3F3D56"/>
<path d="M355.22 59.1609C352.23 51.9809 347.58 46.0009 340.82 42.0409C333.73 37.8709 325.62 34.4009 317.46 33.1509C309.292 31.9433 300.963 32.4094 292.98 34.5209C291.94 34.7909 290.86 35.0809 289.78 35.4009C286.972 36.1257 284.303 37.3082 281.88 38.9009C281.8 38.9509 281.72 39.0009 281.64 39.0609C278.54 41.3409 276.42 45.1009 274.68 48.4709C273.03 51.7009 271.99 55.2609 272.89 58.8709C273.866 62.1639 275.897 65.045 278.67 67.0709C280.6 68.5909 283.13 70.5109 285.71 70.5509C286.32 70.5645 286.927 70.4627 287.5 70.2509C287.679 70.1879 287.85 70.104 288.01 70.0009C289.05 70.3131 290.125 70.4912 291.21 70.5309C295.6 70.7309 299.99 68.8709 304.5 67.3509C305.557 66.982 306.64 66.6912 307.74 66.4809C309.709 66.0523 311.754 66.121 313.69 66.6809C314.047 66.7819 314.398 66.9055 314.74 67.0509C318.081 68.6175 320.9 71.1138 322.86 74.2409C324.77 77.0809 326.03 80.3109 328.13 83.0409C329.172 84.4478 330.499 85.6199 332.024 86.4813C333.548 87.3426 335.237 87.874 336.98 88.0409C342.22 88.6209 348.8 88.3409 353.31 85.1909C354.534 84.3548 355.584 83.2883 356.4 82.0509C356.48 81.9309 356.56 81.8109 356.63 81.6909C360.78 74.8609 358.06 65.9509 355.22 59.1609ZM286.13 48.6709C287.13 48.7809 288.14 48.9009 289.14 49.0109C287.227 49.3525 285.438 50.1904 283.95 51.4409C283.385 51.9207 282.86 52.4458 282.38 53.0109C282.4 52.9709 282.4 52.9209 282.42 52.8809C282.713 51.9605 283.194 51.1111 283.833 50.3864C284.472 49.6617 285.254 49.0775 286.13 48.6709V48.6709ZM346.42 74.0709C346.6 74.0309 346.79 74.0009 346.97 73.9709C347.258 73.926 347.531 73.8166 347.77 73.6509C347.77 73.6809 347.78 73.7209 347.78 73.7509C347.782 73.8847 347.792 74.0183 347.81 74.1509C347.76 74.2309 347.72 74.3109 347.67 74.3909C347.25 74.2809 346.84 74.1709 346.42 74.0709L346.42 74.0709ZM343.63 49.7509C345.844 51.8418 347.729 54.2558 349.22 56.9109C347.455 54.7543 345.504 52.7567 343.39 50.9409C343.549 50.5643 343.631 50.1596 343.63 49.7509V49.7509ZM341.2 78.1209C341.114 78.2672 341.05 78.4256 341.01 78.5909C340.74 78.6009 340.46 78.6109 340.18 78.6109H340.04C340.03 78.5709 340.01 78.5209 340 78.4809C339.94 78.3009 339.89 78.1209 339.83 77.9409C340.29 78.0009 340.74 78.0609 341.2 78.1209V78.1209ZM319.82 55.6909C319.847 55.4887 319.853 55.2844 319.84 55.0809C320.06 55.2469 320.318 55.3568 320.59 55.4009C320.62 55.4109 320.66 55.4109 320.69 55.4209C320.88 55.5309 321.06 55.6309 321.25 55.7409L321.19 55.8309C320.73 55.7809 320.27 55.7409 319.82 55.6909V55.6909ZM335.66 50.7109H335.63C334.97 50.3009 334.31 49.8909 333.64 49.5009C334.32 49.8809 335 50.2909 335.66 50.7109V50.7109ZM331.98 69.4509C331.877 69.5543 331.789 69.6722 331.72 69.8009C331.67 69.7309 331.63 69.6709 331.58 69.6009C331.706 69.5328 331.84 69.4824 331.98 69.4509V69.4509ZM323.02 49.8609C322.798 49.6844 322.552 49.5397 322.29 49.4309C321.002 48.9339 319.682 48.523 318.34 48.2009C318.14 48.0109 317.94 47.8209 317.75 47.6209C318.885 47.8405 320.007 48.1243 321.11 48.4709C322.523 48.924 323.908 49.4582 325.26 50.0709C324.51 49.9909 323.77 49.9209 323.02 49.8609L323.02 49.8609ZM315.4 37.3209C318.277 37.705 321.113 38.3544 323.87 39.2609C323.59 39.1909 323.31 39.1309 323.03 39.0609C320.38 38.4609 317.68 37.8209 314.96 37.2709C315.11 37.2909 315.25 37.3009 315.4 37.3209L315.4 37.3209Z" fill="#CCCCCC"/>
<path d="M326.173 114.976C323.65 114.906 320.511 114.817 318.094 113.052C317.374 112.504 316.783 111.806 316.361 111.006C315.939 110.205 315.698 109.323 315.653 108.419C315.609 107.777 315.715 107.134 315.961 106.539C316.207 105.945 316.588 105.415 317.072 104.992C317.793 104.454 318.636 104.105 319.526 103.977C320.416 103.849 321.324 103.946 322.167 104.259L320.108 89.211L321.619 89.0039L324.04 106.694L322.778 106.115C321.314 105.444 319.306 105.103 318.057 106.157C317.751 106.433 317.512 106.775 317.359 107.158C317.207 107.541 317.145 107.954 317.178 108.365C317.215 109.038 317.396 109.694 317.71 110.29C318.023 110.886 318.461 111.408 318.994 111.82C320.875 113.194 323.377 113.371 326.215 113.451L326.173 114.976Z" fill="#3F3D56"/>
<path d="M312.633 90.5098H304.416V92.0354H312.633V90.5098Z" fill="#3F3D56"/>
<path d="M338.569 90.5098H330.352V92.0354H338.569V90.5098Z" fill="#3F3D56"/>
<path d="M290.14 69.4415C283.523 68.687 278.398 62.347 277.835 55.9142C277.166 48.2614 281.623 40.993 287.737 36.6986C294.131 32.2076 302.098 30.3321 309.806 29.9193C324.842 29.171 339.62 34.0418 351.264 43.5844C357.04 48.3814 362.434 54.492 364.479 61.8728C366.254 68.2828 364.809 75.5444 359.654 80.0338C358.379 81.1339 356.889 81.9578 355.279 82.4534C353.67 82.949 351.975 83.1056 350.302 82.9133C346.301 82.4979 342.611 80.3946 339.416 78.0716C333.201 73.5531 328.099 67.2583 320.528 64.897C314.976 63.1656 307.772 64.6896 304.379 69.7101C303.609 70.8593 303.11 72.1684 302.92 73.5385C302.85 73.8307 302.893 74.1387 303.042 74.4C303.19 74.6613 303.432 74.8565 303.719 74.946C304.012 75.0249 304.324 74.9852 304.587 74.8355C304.851 74.6859 305.044 74.4385 305.127 74.1469C306.017 67.8234 313.793 65.4639 319.249 66.908C327.204 69.0135 332.544 76.1124 339.071 80.6226C342.45 83.1418 346.43 84.7305 350.615 85.2301C354.243 85.5148 357.844 84.4086 360.687 82.136C366.263 77.733 368.395 70.16 367.162 63.3417C365.734 55.4461 360.42 48.6791 354.589 43.44C342.768 32.9311 327.422 27.2619 311.608 27.5621C303.542 27.7474 295.126 29.4125 288.177 33.6756C281.437 37.8109 276.228 44.7291 275.547 52.7708C274.947 59.8491 278.745 67.2526 285.264 70.3536C286.801 71.0817 288.449 71.5469 290.14 71.73C291.601 71.8966 291.589 69.6068 290.14 69.4415H290.14Z" fill="#977E8B"/>
<path d="M483.5 37C483.499 37.265 483.394 37.5188 483.206 37.7062C483.019 37.8936 482.765 37.9992 482.5 38H400.5C400.235 38 399.98 37.8946 399.793 37.7071C399.605 37.5196 399.5 37.2652 399.5 37C399.5 36.7348 399.605 36.4804 399.793 36.2929C399.98 36.1054 400.235 36 400.5 36H482.5C482.765 36.0008 483.019 36.1064 483.206 36.2938C483.394 36.4811 483.499 36.735 483.5 37V37Z" fill="#3F3D56"/>
<path d="M482.5 53H400.5C400.235 53 399.98 52.8946 399.793 52.7071C399.605 52.5196 399.5 52.2652 399.5 52C399.5 51.7348 399.605 51.4804 399.793 51.2929C399.98 51.1054 400.235 51 400.5 51H482.5C482.765 51 483.02 51.1054 483.207 51.2929C483.395 51.4804 483.5 51.7348 483.5 52C483.5 52.2652 483.395 52.5196 483.207 52.7071C483.02 52.8946 482.765 53 482.5 53Z" fill="#3F3D56"/>
<path d="M482.5 68H400.5C400.235 68 399.98 67.8946 399.793 67.7071C399.605 67.5196 399.5 67.2652 399.5 67C399.5 66.7348 399.605 66.4804 399.793 66.2929C399.98 66.1054 400.235 66 400.5 66H482.5C482.765 66 483.02 66.1054 483.207 66.2929C483.395 66.4804 483.5 66.7348 483.5 67C483.5 67.2652 483.395 67.5196 483.207 67.7071C483.02 67.8946 482.765 68 482.5 68Z" fill="#3F3D56"/>
<path d="M482.5 83H400.5C400.235 83 399.98 82.8946 399.793 82.7071C399.605 82.5196 399.5 82.2652 399.5 82C399.5 81.7348 399.605 81.4804 399.793 81.2929C399.98 81.1054 400.235 81 400.5 81H482.5C482.765 81 483.02 81.1054 483.207 81.2929C483.395 81.4804 483.5 81.7348 483.5 82C483.5 82.2652 483.395 82.5196 483.207 82.7071C483.02 82.8946 482.765 83 482.5 83Z" fill="#3F3D56"/>
<path d="M482.5 98H400.5C400.235 98 399.98 97.8946 399.793 97.7071C399.605 97.5196 399.5 97.2652 399.5 97C399.5 96.7348 399.605 96.4804 399.793 96.2929C399.98 96.1054 400.235 96 400.5 96H482.5C482.765 96 483.02 96.1054 483.207 96.2929C483.395 96.4804 483.5 96.7348 483.5 97C483.5 97.2652 483.395 97.5196 483.207 97.7071C483.02 97.8946 482.765 98 482.5 98Z" fill="#3F3D56"/>
<path d="M482.5 113H400.5C400.235 113 399.98 112.895 399.793 112.707C399.605 112.52 399.5 112.265 399.5 112C399.5 111.735 399.605 111.48 399.793 111.293C399.98 111.105 400.235 111 400.5 111H482.5C482.765 111 483.02 111.105 483.207 111.293C483.395 111.48 483.5 111.735 483.5 112C483.5 112.265 483.395 112.52 483.207 112.707C483.02 112.895 482.765 113 482.5 113Z" fill="#3F3D56"/>
<path d="M186.131 246.555C183.344 246.563 180.653 245.536 178.58 243.674C177.42 242.639 176.483 241.378 175.828 239.968C175.173 238.558 174.812 237.029 174.769 235.475L130.393 203.201C129.054 202.227 127.942 200.975 127.134 199.53C126.325 198.085 125.839 196.482 125.71 194.832C125.58 193.181 125.81 191.522 126.383 189.969C126.957 188.416 127.86 187.005 129.03 185.835L162.069 152.797C163.43 151.435 165.164 150.508 167.053 150.132C168.941 149.757 170.898 149.95 172.677 150.686C174.456 151.423 175.976 152.671 177.046 154.272C178.115 155.872 178.686 157.755 178.686 159.68C178.416 164.73 176.426 169.536 173.045 173.299L150.613 195.731L185.821 223.796C185.93 223.789 186.038 223.783 186.148 223.783C189.055 223.783 191.852 224.894 193.966 226.89C196.08 228.886 197.35 231.614 197.517 234.516C197.684 237.418 196.734 240.275 194.863 242.499C192.992 244.724 190.341 246.148 187.453 246.481C187.014 246.53 186.572 246.555 186.131 246.555V246.555Z" fill="#FFB8B8"/>
<path d="M238.863 437.183L250.77 432.738L239.291 384.695L221.717 391.256L238.863 437.183Z" fill="#FFB8B8"/>
<path d="M277.861 435.223L240.439 449.193L235.041 434.735L258.517 425.971C262.216 424.59 266.312 424.735 269.904 426.374C273.496 428.013 276.289 431.012 277.67 434.711L277.861 435.223V435.223Z" fill="#2F2E41"/>
<path d="M131.741 439.364H144.451L150.497 390.34L131.739 390.341L131.741 439.364Z" fill="#FFB8B8"/>
<path d="M168.963 451.164L129.018 451.166L129.017 435.732L154.075 435.731C158.024 435.731 161.81 437.299 164.602 440.091C167.394 442.883 168.963 446.669 168.963 450.618L168.963 451.164V451.164Z" fill="#2F2E41"/>
<path d="M145.459 425.986C145.316 425.986 145.173 425.979 145.029 425.965L131.557 424.682C130.464 424.578 129.447 424.078 128.697 423.276C127.947 422.474 127.516 421.426 127.485 420.329C126.707 391.153 124.749 243.9 162.642 210.155C163.299 209.578 164.114 209.21 164.981 209.098V209.098C171.845 208.157 195.001 205.85 204.803 215.709C205.425 216.329 205.856 217.116 206.044 217.974L248.952 416.362C249.084 416.972 249.088 417.603 248.963 418.215C248.837 418.827 248.586 419.406 248.225 419.915C247.864 420.425 247.4 420.854 246.865 421.174C246.329 421.495 245.732 421.701 245.112 421.778L228.661 423.834C228.067 423.909 227.464 423.865 226.887 423.703C226.31 423.542 225.772 423.267 225.303 422.895C224.834 422.522 224.444 422.06 224.156 421.535C223.868 421.01 223.689 420.432 223.627 419.837C221.99 403.89 212.154 322.886 179.192 294.174C178.745 293.781 178.208 293.508 177.628 293.377C177.049 293.247 176.446 293.265 175.875 293.428C175.316 293.583 174.805 293.878 174.392 294.285C173.978 294.693 173.675 295.198 173.511 295.755C167.409 315.721 147.675 383.776 149.943 421.216C149.981 421.829 149.893 422.442 149.685 423.019C149.476 423.596 149.152 424.124 148.732 424.571C148.312 425.018 147.805 425.374 147.242 425.617C146.679 425.86 146.072 425.986 145.459 425.985V425.986Z" fill="#2F2E41"/>
<path d="M171.388 128.981C184.953 128.981 195.949 117.985 195.949 104.42C195.949 90.8557 184.953 79.8594 171.388 79.8594C157.823 79.8594 146.827 90.8557 146.827 104.42C146.827 117.985 157.823 128.981 171.388 128.981Z" fill="#FFB8B8"/>
<path d="M147.272 150.677C147.272 150.677 170.08 123.723 188.74 145.493C200.747 159.501 207.098 177.484 206.55 195.926L205.846 219.618L162.823 212.88L147.272 150.677Z" fill="#FE519E"/>
<path d="M207.208 202.907C207.029 202.907 206.85 202.903 206.671 202.895C204.832 202.819 203.033 202.345 201.396 201.506C199.759 200.666 198.324 199.481 197.189 198.033L169.274 162.44C168.085 160.925 167.373 159.092 167.227 157.172C167.081 155.253 167.507 153.333 168.452 151.655C169.397 149.978 170.818 148.618 172.535 147.748C174.253 146.878 176.19 146.537 178.101 146.768L182.031 147.244C184.541 147.684 186.825 148.97 188.502 150.889L210.523 178.966L242.61 147.38C242.616 147.271 242.623 147.163 242.637 147.054C242.905 144.831 243.822 142.736 245.275 141.032C246.727 139.328 248.65 138.09 250.802 137.472C252.954 136.855 255.241 136.886 257.375 137.562C259.51 138.237 261.398 139.527 262.804 141.27C264.209 143.013 265.07 145.131 265.278 147.361C265.485 149.59 265.031 151.831 263.972 153.804C262.913 155.776 261.296 157.393 259.322 158.451C257.349 159.51 255.108 159.963 252.879 159.754L216.526 198.846C215.336 200.127 213.894 201.149 212.291 201.848C210.687 202.547 208.957 202.907 207.208 202.907V202.907Z" fill="#FFB8B8"/>
<path d="M175.369 108.671L185.922 96.2391C188.641 93.0354 191.486 89.5458 191.87 85.3611C192.292 80.7739 189.502 76.3149 185.687 73.7323C181.873 71.1497 177.188 70.1778 172.596 69.8212C164.078 69.1598 155.114 70.5675 148.112 75.4626C141.109 80.3577 136.528 89.1952 138.235 97.5667C139.58 104.158 144.533 110.473 142.608 116.919C140.501 123.972 131.861 126.136 124.807 128.239C112.967 131.769 101.661 138.719 95.4557 149.403C89.2505 160.088 89.2776 174.82 97.5493 183.998C102.905 189.941 110.984 192.947 118.971 193.399C126.959 193.851 134.91 191.97 142.485 189.397C149.462 187.027 156.363 183.979 161.855 179.067C167.348 174.156 171.305 167.128 171.133 159.762C170.97 152.742 167.21 146.347 165.665 139.498C164.447 133.762 164.766 127.806 166.592 122.233C168.418 116.661 171.684 111.67 176.06 107.768" fill="#2F2E41"/>
<path d="M687.5 357H436.5C434.644 356.998 432.865 356.26 431.553 354.947C430.24 353.635 429.502 351.856 429.5 350V214C429.502 212.144 430.24 210.365 431.553 209.053C432.865 207.74 434.644 207.002 436.5 207H687.5C689.356 207.002 691.135 207.74 692.447 209.053C693.76 210.365 694.498 212.144 694.5 214V350C694.498 351.856 693.76 353.635 692.447 354.947C691.135 356.26 689.356 356.998 687.5 357ZM436.5 209C435.174 209.002 433.904 209.529 432.966 210.466C432.029 211.404 431.502 212.674 431.5 214V350C431.502 351.326 432.029 352.596 432.966 353.534C433.904 354.471 435.174 354.998 436.5 355H687.5C688.826 354.998 690.096 354.471 691.034 353.534C691.971 352.596 692.498 351.326 692.5 350V214C692.498 212.674 691.971 211.404 691.034 210.466C690.096 209.529 688.826 209.002 687.5 209H436.5Z" fill="#3F3D56"/>
<path d="M535.224 266.157C532.229 258.985 527.576 253.002 520.821 249.037C513.725 244.871 505.625 241.402 497.464 240.15C489.294 238.943 480.965 239.41 472.981 241.521C469.132 242.518 464.89 243.675 461.644 246.062C458.541 248.343 456.415 252.096 454.685 255.468C453.027 258.698 451.993 262.255 452.891 265.873C453.866 269.167 455.899 272.048 458.674 274.072C461.037 275.939 464.341 278.409 467.501 277.253C467.68 277.187 467.851 277.101 468.011 276.995C473.468 278.656 478.894 276.241 484.495 274.35C487.9 273.201 491.323 272.62 494.742 274.054C498.083 275.618 500.902 278.111 502.862 281.236C504.774 284.082 506.033 287.314 508.13 290.042C509.173 291.447 510.5 292.617 512.023 293.477C513.547 294.338 515.234 294.869 516.976 295.037C523.744 295.794 532.728 295.097 536.627 288.688C540.783 281.859 538.064 272.954 535.224 266.157ZM466.131 255.668C467.135 255.782 468.139 255.896 469.143 256.01C467.23 256.354 465.441 257.193 463.952 258.443C463.386 258.921 462.861 259.446 462.383 260.011C462.397 259.965 462.405 259.922 462.42 259.875C462.715 258.956 463.197 258.108 463.836 257.384C464.474 256.66 465.256 256.076 466.131 255.668V255.668ZM499.835 262.079C500.058 262.247 500.318 262.357 500.593 262.402C500.625 262.408 500.657 262.414 500.689 262.419C500.876 262.526 501.063 262.632 501.25 262.737C501.229 262.767 501.213 262.8 501.193 262.83C500.734 262.782 500.275 262.737 499.816 262.691C499.848 262.489 499.855 262.283 499.835 262.079V262.079ZM511.985 276.446C511.883 276.553 511.794 276.671 511.718 276.798C511.673 276.733 511.628 276.668 511.583 276.602C511.707 276.529 511.843 276.476 511.985 276.446V276.446ZM519.831 284.938C520.286 284.998 520.741 285.058 521.196 285.118C521.111 285.265 521.049 285.425 521.011 285.591C520.689 285.601 520.363 285.607 520.038 285.608L519.831 284.938ZM526.421 281.066L526.97 280.971C527.258 280.925 527.532 280.816 527.773 280.652C527.774 280.685 527.777 280.717 527.778 280.749C527.782 280.859 527.792 280.996 527.806 281.152C527.761 281.23 527.716 281.308 527.668 281.386C527.252 281.279 526.837 281.172 526.421 281.066V281.066ZM503.02 256.865C502.801 256.683 502.554 256.537 502.289 256.435C501 255.937 499.68 255.524 498.338 255.199C498.137 255.01 497.94 254.816 497.749 254.617C498.882 254.841 500.003 255.126 501.106 255.471C502.52 255.925 503.907 256.458 505.26 257.069C504.512 256.986 503.766 256.918 503.02 256.865ZM515.626 257.709C514.968 257.298 514.306 256.895 513.64 256.499C514.323 256.883 514.996 257.287 515.659 257.709L515.626 257.709ZM529.218 263.913C527.454 261.755 525.503 259.757 523.388 257.941C523.551 257.566 523.633 257.161 523.629 256.752C525.845 258.841 527.729 261.255 529.218 263.913V263.913ZM503.869 246.255C503.59 246.191 503.311 246.126 503.032 246.063C500.382 245.465 497.683 244.82 494.959 244.274C495.105 244.291 495.251 244.305 495.397 244.323C498.275 244.704 501.111 245.351 503.869 246.255V246.255Z" fill="#FE519E"/>
<path d="M506.172 321.976C503.65 321.906 500.511 321.817 498.094 320.052C497.374 319.504 496.783 318.806 496.361 318.006C495.939 317.205 495.698 316.323 495.653 315.419C495.609 314.777 495.715 314.134 495.961 313.539C496.207 312.945 496.588 312.415 497.072 311.992C497.793 311.454 498.636 311.105 499.526 310.977C500.416 310.849 501.324 310.946 502.167 311.259L500.108 296.211L501.619 296.004L504.04 313.694L502.778 313.115C501.314 312.444 499.306 312.103 498.057 313.157C497.751 313.433 497.512 313.775 497.359 314.158C497.207 314.541 497.145 314.954 497.178 315.365C497.215 316.038 497.396 316.694 497.71 317.29C498.023 317.886 498.461 318.408 498.994 318.82C500.875 320.194 503.377 320.371 506.215 320.451L506.172 321.976Z" fill="#3F3D56"/>
<path d="M492.633 297.51H484.416V299.035H492.633V297.51Z" fill="#3F3D56"/>
<path d="M518.569 297.51H510.352V299.035H518.569V297.51Z" fill="#3F3D56"/>
<path d="M470.14 276.442C463.523 275.687 458.398 269.347 457.835 262.914C457.165 255.261 461.622 247.993 467.736 243.699C474.131 239.208 482.097 237.332 489.805 236.919C504.842 236.171 519.619 241.042 531.264 250.584C537.04 255.381 542.434 261.492 544.478 268.873C546.254 275.283 544.809 282.544 539.653 287.034C538.378 288.134 536.889 288.958 535.279 289.453C533.669 289.949 531.974 290.106 530.301 289.913C526.301 289.498 522.61 287.395 519.415 285.072C513.201 280.553 508.099 274.258 500.527 271.897C494.975 270.166 487.771 271.69 484.378 276.71C483.609 277.859 483.11 279.168 482.919 280.539C482.849 280.831 482.893 281.139 483.041 281.4C483.19 281.661 483.432 281.857 483.719 281.946C484.011 282.025 484.323 281.985 484.587 281.836C484.85 281.686 485.044 281.438 485.126 281.147C486.017 274.823 493.792 272.464 499.248 273.908C507.203 276.013 512.544 283.112 519.071 287.623C522.449 290.142 526.43 291.73 530.614 292.23C534.243 292.515 537.843 291.409 540.686 289.136C546.262 284.733 548.394 277.16 547.161 270.342C545.734 262.446 540.419 255.679 534.588 250.44C522.768 239.931 507.421 234.262 491.607 234.562C483.542 234.747 475.126 236.412 468.177 240.676C461.437 244.811 456.227 251.729 455.546 259.771C454.947 266.849 458.744 274.253 465.263 277.354C466.801 278.082 468.449 278.547 470.14 278.73C471.6 278.897 471.589 276.607 470.14 276.442H470.14Z" fill="#3F3D56"/>
<path d="M662.5 245H580.5C580.235 245 579.98 244.895 579.793 244.707C579.605 244.52 579.5 244.265 579.5 244C579.5 243.735 579.605 243.48 579.793 243.293C579.98 243.105 580.235 243 580.5 243H662.5C662.765 243 663.02 243.105 663.207 243.293C663.395 243.48 663.5 243.735 663.5 244C663.5 244.265 663.395 244.52 663.207 244.707C663.02 244.895 662.765 245 662.5 245Z" fill="#3F3D56"/>
<path d="M662.5 260H580.5C580.235 260 579.98 259.895 579.793 259.707C579.605 259.52 579.5 259.265 579.5 259C579.5 258.735 579.605 258.48 579.793 258.293C579.98 258.105 580.235 258 580.5 258H662.5C662.765 258 663.02 258.105 663.207 258.293C663.395 258.48 663.5 258.735 663.5 259C663.5 259.265 663.395 259.52 663.207 259.707C663.02 259.895 662.765 260 662.5 260Z" fill="#3F3D56"/>
<path d="M662.5 275H580.5C580.235 275 579.98 274.895 579.793 274.707C579.605 274.52 579.5 274.265 579.5 274C579.5 273.735 579.605 273.48 579.793 273.293C579.98 273.105 580.235 273 580.5 273H662.5C662.765 273 663.02 273.105 663.207 273.293C663.395 273.48 663.5 273.735 663.5 274C663.5 274.265 663.395 274.52 663.207 274.707C663.02 274.895 662.765 275 662.5 275Z" fill="#3F3D56"/>
<path d="M662.5 290H580.5C580.235 290 579.98 289.895 579.793 289.707C579.605 289.52 579.5 289.265 579.5 289C579.5 288.735 579.605 288.48 579.793 288.293C579.98 288.105 580.235 288 580.5 288H662.5C662.765 288 663.02 288.105 663.207 288.293C663.395 288.48 663.5 288.735 663.5 289C663.5 289.265 663.395 289.52 663.207 289.707C663.02 289.895 662.765 290 662.5 290Z" fill="#3F3D56"/>
<path d="M662.5 305H580.5C580.235 305 579.98 304.895 579.793 304.707C579.605 304.52 579.5 304.265 579.5 304C579.5 303.735 579.605 303.48 579.793 303.293C579.98 303.105 580.235 303 580.5 303H662.5C662.765 303 663.02 303.105 663.207 303.293C663.395 303.48 663.5 303.735 663.5 304C663.5 304.265 663.395 304.52 663.207 304.707C663.02 304.895 662.765 305 662.5 305Z" fill="#3F3D56"/>
<path d="M662.5 320H580.5C580.235 320 579.98 319.895 579.793 319.707C579.605 319.52 579.5 319.265 579.5 319C579.5 318.735 579.605 318.48 579.793 318.293C579.98 318.105 580.235 318 580.5 318H662.5C662.765 318 663.02 318.105 663.207 318.293C663.395 318.48 663.5 318.735 663.5 319C663.5 319.265 663.395 319.52 663.207 319.707C663.02 319.895 662.765 320 662.5 320Z" fill="#3F3D56"/>
<path d="M815.686 211.675C830.177 211.675 841.924 199.927 841.924 185.436C841.924 170.945 830.177 159.197 815.686 159.197C801.194 159.197 789.447 170.945 789.447 185.436C789.447 199.927 801.194 211.675 815.686 211.675Z" fill="#FFB8B8"/>
<path d="M737.487 572.022L725.009 568.045L734.412 518.02L752.829 523.89L737.487 572.022Z" fill="#FFB8B8"/>
<path d="M716.666 561.452L741.298 569.303L736.469 584.456L697.25 571.955L697.431 571.389C698.041 569.473 699.023 567.697 700.32 566.161C701.617 564.625 703.204 563.359 704.99 562.437C706.776 561.514 708.727 560.952 710.73 560.783C712.733 560.614 714.75 560.841 716.666 561.452V561.452Z" fill="#2F2E41"/>
<path d="M828.277 571.762H815.179L808.946 521.244H828.277V571.762Z" fill="#FFB8B8"/>
<path d="M805.229 568.02H831.083V583.923H789.92V583.329C789.92 581.318 790.316 579.328 791.086 577.47C791.855 575.613 792.983 573.925 794.404 572.503C795.826 571.082 797.514 569.954 799.371 569.185C801.228 568.416 803.219 568.02 805.229 568.02V568.02Z" fill="#2F2E41"/>
<path d="M827.893 555.368L823.473 554.708C810.066 552.711 809.263 552.591 807.134 551.657C806.048 551.179 805.971 543.963 806.624 503.401C807.103 473.626 807.699 436.571 806.541 416.678C806.494 415.893 806.183 415.147 805.659 414.561C805.136 413.974 804.43 413.581 803.655 413.444C802.881 413.308 802.083 413.436 801.391 413.809C800.698 414.181 800.151 414.776 799.838 415.498C789.863 438.535 773.126 490.088 762.051 524.202C758.199 536.068 755.156 545.441 753.231 551.059C752.859 552.122 752.105 553.007 751.115 553.543C750.125 554.079 748.97 554.227 747.877 553.957C738.763 551.679 739.373 550.71 726.392 547.353C725.269 547.066 724.3 546.356 723.688 545.372C723.077 544.388 722.869 543.205 723.11 542.071C725.458 530.999 768.425 351.471 771.713 334.405C771.825 333.821 772.051 333.265 772.378 332.769C772.706 332.272 773.128 331.846 773.621 331.514C774.115 331.181 774.669 330.95 775.252 330.834C775.835 330.717 776.435 330.717 777.019 330.834C786.692 332.783 792.578 334.851 802.137 336.85C812.453 339.008 823.12 341.239 833.524 343.322C834.559 343.53 835.487 344.099 836.143 344.927C838.717 348.179 842.535 350.004 846.577 351.936C849.301 353.239 843.127 353.121 845.5 355C855.11 362.607 841.29 517.088 832.94 551.978C832.672 553.07 832.007 554.023 831.073 554.65C830.139 555.277 829.006 555.533 827.893 555.368V555.368Z" fill="#2F2E41"/>
<path d="M819.984 380.28C819.686 378.924 819.689 377.519 819.992 376.165C820.296 374.81 820.892 373.538 821.741 372.439C822.589 371.339 823.668 370.439 824.901 369.802C826.135 369.165 827.493 368.806 828.88 368.751L850.088 344.812L863.258 360.723L838.869 378.54C838.807 380.877 837.891 383.11 836.293 384.816C834.695 386.523 832.527 387.584 830.199 387.798C827.872 388.013 825.546 387.366 823.663 385.98C821.781 384.595 820.471 382.567 819.984 380.28V380.28Z" fill="#FFB8B8"/>
<path d="M826.87 208.396C825.338 201.896 833.082 187.91 831.55 181.41C830.512 177.008 820.161 180 817.746 176.177C815.33 172.353 811.284 169.256 806.761 169.205C801.563 169.147 796.449 173.003 791.525 171.336C786.546 169.651 784.955 162.833 787.156 158.06C789.357 153.287 794.099 150.246 798.783 147.862C806.761 143.804 816.05 140.84 824.588 143.525C829.749 145.149 834.065 148.666 838.241 152.106C842.048 155.241 845.919 158.448 848.58 162.601C853.794 170.736 853.479 181.696 849.024 190.27C844.569 198.843 836.45 205.135 827.505 208.787" fill="#2F2E41"/>
<path d="M762.441 359.663C765.273 354.932 769.573 332.765 774.875 295.559C778.485 270.16 781.63 244.353 783.191 231.171C783.312 230.104 783.702 229.085 784.325 228.21C784.947 227.335 785.782 226.633 786.75 226.169C787.763 225.68 788.77 225.218 789.77 224.782C802.693 219.16 815.79 217.298 828.694 219.245C841.579 221.224 853.665 226.731 863.613 235.157L863.731 235.267L863.761 235.426C863.817 235.719 869.237 264.924 858.136 284.655C847.188 304.124 847.06 355.681 847.06 356.2V356.863L846.423 356.681C829.391 351.814 763.598 360.328 762.935 360.415L761.91 360.549L762.441 359.663Z" fill="#642648"/>
<path d="M832.332 363.618L865.789 319.009L848.536 282.039L849.789 238.193L863.933 235.58L864.083 235.655C870.954 239.674 876.28 245.879 879.211 253.28C882.353 261.135 888.87 287.861 893.784 308.898C895.067 314.312 894.939 319.965 893.412 325.316C891.884 330.666 889.009 335.535 885.061 339.456L844.018 380.499L832.332 363.618Z" fill="#722D54"/>
<path d="M691.878 275.21C692.678 274.075 693.717 273.129 694.922 272.439C696.127 271.749 697.468 271.332 698.852 271.216C700.236 271.101 701.628 271.29 702.93 271.771C704.233 272.252 705.414 273.013 706.391 273.999L738.368 273.507L735.507 293.962L705.902 287.977C704.136 289.508 701.869 290.338 699.531 290.309C697.194 290.281 694.948 289.396 693.22 287.822C691.491 286.248 690.4 284.095 690.152 281.771C689.905 279.446 690.519 277.112 691.878 275.21Z" fill="#FFB8B8"/>
<path d="M707.929 293.102L712.503 273.086L768.003 267.691L783.218 231.099L783.663 230.019L789.643 224.861L789.77 224.781C802.693 219.161 815.789 217.298 828.695 219.245L829.148 219.314L829.119 219.771C828.828 224.454 827.626 229.035 825.58 233.257C819.839 245.165 784.516 295.786 784.16 296.295L784.002 296.521L707.929 293.102Z" fill="#722D54"/>
<path d="M974 586H593C592.735 586 592.48 585.895 592.293 585.707C592.105 585.52 592 585.265 592 585C592 584.735 592.105 584.48 592.293 584.293C592.48 584.105 592.735 584 593 584H974C974.265 584 974.52 584.105 974.707 584.293C974.895 584.48 975 584.735 975 585C975 585.265 974.895 585.52 974.707 585.707C974.52 585.895 974.265 586 974 586Z" fill="#3F3D56"/>
<path d="M382 451H1C0.734784 451 0.480436 450.895 0.2929 450.707C0.105364 450.52 0 450.265 0 450C0 449.735 0.105364 449.48 0.2929 449.293C0.480436 449.105 0.734784 449 1 449H382C382.265 449 382.52 449.105 382.707 449.293C382.895 449.48 383 449.735 383 450C383 450.265 382.895 450.52 382.707 450.707C382.52 450.895 382.265 451 382 451Z" fill="#3F3D56"/>
</g>
<defs>
<clipPath id="clip0">
<rect width="983.864" height="586.046" fill="white"/>
</clipPath>
</defs>
</svg>
