<svg width="679" height="971" viewBox="0 0 679 971" fill="none" xmlns="http://www.w3.org/2000/svg">
<path d="M262.692 323.185H133.849L162.367 241.914H291.21L262.692 323.185Z" fill="#977E8B" stroke="#977E8B" stroke-width="6" stroke-miterlimit="10"/>
<path d="M293.349 241.914L264.831 323.185H143.117L171.635 241.914H293.349Z" fill="#977E8B" stroke="#977E8B" stroke-width="6" stroke-miterlimit="10"/>
<path d="M388.863 20.1855H46.7408C42.2009 20.1855 38.5205 24.1546 38.5205 29.0507V240.808C38.5205 245.704 42.2009 249.673 46.7408 249.673H388.863C393.403 249.673 397.083 245.704 397.083 240.808V29.0507C397.083 24.1546 393.403 20.1855 388.863 20.1855Z" fill="#977E8B" stroke="#977E8B" stroke-width="6" stroke-miterlimit="10"/>
<path d="M290.776 241.914L282.783 265.819L162.267 275.814L174.038 241.914H290.776Z" fill="#DCF5FF"/>
<path d="M397.447 20.1855H55.3247C50.7847 20.1855 47.1044 24.1546 47.1044 29.0507V240.808C47.1044 245.704 50.7847 249.673 55.3247 249.673H397.447C401.987 249.673 405.667 245.704 405.667 240.808V29.0507C405.667 24.1546 401.987 20.1855 397.447 20.1855Z" fill="#977E8B" stroke="#977E8B" stroke-width="6" stroke-miterlimit="10"/>
<path d="M391.907 38.2148H64.8923V192.844H391.907V38.2148Z" fill="#3F4D79"/>
<path d="M391.907 38.2148H64.8923V192.844H391.907V38.2148Z" stroke="#977E8B" stroke-width="3" stroke-miterlimit="10"/>
<path d="M90.972 38.2148V192.837" stroke="#977E8B" stroke-width="1.5" stroke-miterlimit="10"/>
<path d="M118.371 38.2148V192.837" stroke="#977E8B" stroke-width="1.5" stroke-miterlimit="10"/>
<path d="M145.776 38.2148V192.837" stroke="#977E8B" stroke-width="1.5" stroke-miterlimit="10"/>
<path d="M173.175 38.2148V192.837" stroke="#977E8B" stroke-width="1.5" stroke-miterlimit="10"/>
<path d="M200.581 38.2148V192.837" stroke="#977E8B" stroke-width="1.5" stroke-miterlimit="10"/>
<path d="M227.979 38.2148V192.837" stroke="#977E8B" stroke-width="1.5" stroke-miterlimit="10"/>
<path d="M255.385 38.2148V192.837" stroke="#977E8B" stroke-width="1.5" stroke-miterlimit="10"/>
<path d="M282.783 38.2148V192.837" stroke="#977E8B" stroke-width="1.5" stroke-miterlimit="10"/>
<path d="M310.182 38.2148V192.837" stroke="#977E8B" stroke-width="1.5" stroke-miterlimit="10"/>
<path d="M337.588 38.2148V192.837" stroke="#977E8B" stroke-width="1.5" stroke-miterlimit="10"/>
<path d="M364.986 38.2148V192.837" stroke="#977E8B" stroke-width="1.5" stroke-miterlimit="10"/>
<path d="M391.928 130.395C380.35 130.395 381.997 110.404 366.262 110.404C350.235 110.404 336.147 165.625 315.187 165.625C292.708 165.625 283.625 115.518 264.86 115.518C239.507 115.518 239.707 154.169 211.553 154.169C183.398 154.169 169.646 82.0098 145.962 82.0098C124.431 82.0098 118.428 148.902 91.193 148.902C76.713 148.902 74.2319 130.941 64.436 130.941" fill="#DCF5FF"/>
<path d="M65.199 130.989C145.84 130.989 148.97 111.713 183.406 111.713C213.734 111.713 224.757 147.082 248.997 147.082C276.631 147.082 290.497 107.23 309.219 107.23C327.941 107.23 337.288 147.943 353.059 147.943C368.829 147.943 374.233 130.474 391.515 130.474L65.199 130.989Z" fill="#FE519E"/>
<path d="M64.3364 130.057C159.643 130.057 158.788 101.609 186.764 101.609C214.333 101.609 227.879 155.338 252.141 155.338C279.775 155.338 287.46 95.5117 309.241 95.5117C331.685 95.5117 339.734 156.253 357.144 156.253C372.829 156.253 374.255 131.372 391.536 131.372" stroke="#977E8B" stroke-width="2" stroke-miterlimit="10"/>
<path d="M66.7246 205.746H391.565" stroke="#977E8B" stroke-width="3" stroke-miterlimit="10" stroke-linecap="round"/>
<path d="M66.0188 202.947H180.176V208.537H66.0188C65.3911 208.537 64.789 208.268 64.3451 207.789C63.9012 207.311 63.6519 206.661 63.6519 205.984V205.5C63.6519 204.823 63.9012 204.174 64.3451 203.695C64.789 203.216 65.3911 202.947 66.0188 202.947Z" fill="#FE519E"/>
<path d="M185.238 210.652C187.608 210.652 189.53 208.58 189.53 206.023C189.53 203.467 187.608 201.395 185.238 201.395C182.868 201.395 180.946 203.467 180.946 206.023C180.946 208.58 182.868 210.652 185.238 210.652Z" fill="#977E8B" stroke="#FE519E" stroke-width="4" stroke-miterlimit="10"/>
<path d="M224.692 219.68H224.372C223.45 219.68 222.703 220.485 222.703 221.479V232.174C222.703 233.168 223.45 233.973 224.372 233.973H224.692C225.614 233.973 226.361 233.168 226.361 232.174V221.479C226.361 220.485 225.614 219.68 224.692 219.68Z" fill="#FE519E"/>
<path d="M231.758 219.68H231.437C230.515 219.68 229.769 220.485 229.769 221.479V232.174C229.769 233.168 230.515 233.973 231.437 233.973H231.758C232.679 233.973 233.426 233.168 233.426 232.174V221.479C233.426 220.485 232.679 219.68 231.758 219.68Z" fill="#FE519E"/>
<path d="M241.689 232.595V221.062C241.688 220.828 241.746 220.599 241.856 220.398C241.966 220.197 242.124 220.031 242.313 219.919C242.503 219.806 242.717 219.751 242.934 219.759C243.15 219.766 243.36 219.837 243.543 219.962L252.005 225.721C252.178 225.839 252.32 226.002 252.418 226.195C252.516 226.388 252.568 226.604 252.568 226.825C252.568 227.045 252.516 227.261 252.418 227.454C252.32 227.647 252.178 227.81 252.005 227.928L243.543 233.694C243.36 233.818 243.15 233.886 242.934 233.892C242.719 233.899 242.506 233.843 242.317 233.731C242.128 233.619 241.97 233.455 241.86 233.255C241.75 233.055 241.691 232.827 241.689 232.595Z" fill="#FE519E"/>
<path d="M210.319 223.753V227.598C210.319 229.131 209.755 230.602 208.749 231.686C207.744 232.77 206.38 233.38 204.958 233.38H201.308C199.776 233.38 198.307 232.723 197.224 231.555C196.141 230.387 195.533 228.803 195.533 227.152V227.152C195.533 225.499 196.141 223.914 197.224 222.745C198.307 221.576 199.776 220.918 201.308 220.916" stroke="#FE519E" stroke-width="3" stroke-linecap="round" stroke-linejoin="round"/>
<path d="M206.306 225.245L210.319 220.916L214.333 225.245" stroke="#FE519E" stroke-width="3" stroke-linecap="round" stroke-linejoin="round"/>
<path d="M0 412.807H440.944V436.173H0.349344" stroke="#FE519E" stroke-width="5" stroke-miterlimit="10"/>
<path d="M422.778 397.105V408.192H172.248V397.105L48.7014 315.135H299.238L412.433 390.239L422.778 397.105Z" fill="white" stroke="#AEE5F2" stroke-width="6" stroke-linejoin="round"/>
<path d="M172.248 397.105V408.192H48.7014V315.135L172.248 397.105Z" fill="white" stroke="#AEE5F2" stroke-width="6" stroke-linejoin="round"/>
<path d="M143.039 359.906L185.159 387.847" stroke="#977E8B" stroke-width="4" stroke-linecap="round" stroke-linejoin="round"/>
<path d="M181.459 381.666V383.773H175.542V381.666L171.706 377.291L166.074 370.871H171.999L181.459 381.666Z" fill="#FE519E"/>
<path d="M181.459 381.674V383.781H175.542L171.706 381.236L166.074 377.499V370.871L171.706 377.291L175.542 381.666V381.674H181.459Z" fill="#DC9600"/>
<path d="M136.601 348.873C136.601 350.08 134.148 351.057 131.125 351.057C128.102 351.057 125.65 350.08 125.65 348.873L127.076 337.602H135.125L136.601 348.873Z" fill="white" stroke="#977E8B" stroke-width="4" stroke-linejoin="round"/>
<path d="M131.118 340.022C133.343 340.022 135.146 338.969 135.146 337.669C135.146 336.37 133.343 335.316 131.118 335.316C128.893 335.316 127.09 336.37 127.09 337.669C127.09 338.969 128.893 340.022 131.118 340.022Z" fill="#FE519E" stroke="#977E8B" stroke-width="4" stroke-linejoin="round"/>
<path d="M117.458 337.217C117.458 338.424 115.006 339.401 111.983 339.401C108.96 339.401 106.507 338.424 106.507 337.217L107.933 325.945H115.989L117.458 337.217Z" fill="white" stroke="#977E8B" stroke-width="4" stroke-linejoin="round"/>
<path d="M111.976 328.368C114.2 328.368 116.004 327.314 116.004 326.015C116.004 324.715 114.2 323.662 111.976 323.662C109.751 323.662 107.947 324.715 107.947 326.015C107.947 327.314 109.751 328.368 111.976 328.368Z" fill="#FE519E" stroke="#977E8B" stroke-width="4" stroke-linejoin="round"/>
<path d="M99.8696 324.946C99.8696 326.153 97.417 327.129 94.3941 327.129C91.3712 327.129 88.9187 326.153 88.9187 324.946L90.3446 313.674H98.3866L99.8696 324.946Z" fill="white" stroke="#977E8B" stroke-width="4" stroke-linejoin="round"/>
<path d="M94.387 316.096C96.6117 316.096 98.4152 315.043 98.4152 313.743C98.4152 312.444 96.6117 311.391 94.387 311.391C92.1624 311.391 90.3589 312.444 90.3589 313.743C90.3589 315.043 92.1624 316.096 94.387 316.096Z" fill="#FE519E" stroke="#977E8B" stroke-width="4" stroke-linejoin="round"/>
<path d="M177.467 348.873C177.467 350.08 175.022 351.057 171.999 351.057C168.976 351.057 166.523 350.08 166.523 348.873L167.949 337.602H175.998L177.467 348.873Z" fill="white" stroke="#977E8B" stroke-width="4" stroke-linejoin="round"/>
<path d="M171.991 340.022C174.216 340.022 176.02 338.969 176.02 337.669C176.02 336.37 174.216 335.316 171.991 335.316C169.767 335.316 167.963 336.37 167.963 337.669C167.963 338.969 169.767 340.022 171.991 340.022Z" fill="#FE519E" stroke="#977E8B" stroke-width="4" stroke-linejoin="round"/>
<path d="M158.331 337.217C158.331 338.424 155.879 339.401 152.856 339.401C149.833 339.401 147.38 338.424 147.38 337.217L148.806 325.945H156.848L158.331 337.217Z" fill="white" stroke="#977E8B" stroke-width="4" stroke-linejoin="round"/>
<path d="M152.849 328.368C155.073 328.368 156.877 327.314 156.877 326.015C156.877 324.715 155.073 323.662 152.849 323.662C150.624 323.662 148.821 324.715 148.821 326.015C148.821 327.314 150.624 328.368 152.849 328.368Z" fill="#FE519E" stroke="#977E8B" stroke-width="4" stroke-linejoin="round"/>
<path d="M140.736 324.946C140.736 326.153 138.29 327.129 135.26 327.129C132.23 327.129 129.785 326.153 129.785 324.946L131.211 313.674H139.26L140.736 324.946Z" fill="white" stroke="#977E8B" stroke-width="4" stroke-linejoin="round"/>
<path d="M135.26 316.096C137.485 316.096 139.288 315.043 139.288 313.743C139.288 312.444 137.485 311.391 135.26 311.391C133.036 311.391 131.232 312.444 131.232 313.743C131.232 315.043 133.036 316.096 135.26 316.096Z" fill="#FE519E" stroke="#977E8B" stroke-width="4" stroke-linejoin="round"/>
<path d="M214.718 348.873C214.718 350.08 212.266 351.057 209.243 351.057C206.22 351.057 203.767 350.08 203.767 348.873L205.193 337.602H213.243L214.718 348.873Z" fill="white" stroke="#977E8B" stroke-width="4" stroke-linejoin="round"/>
<path d="M209.243 340.022C211.468 340.022 213.271 338.969 213.271 337.669C213.271 336.37 211.468 335.316 209.243 335.316C207.018 335.316 205.215 336.37 205.215 337.669C205.215 338.969 207.018 340.022 209.243 340.022Z" fill="#FE519E" stroke="#977E8B" stroke-width="4" stroke-linejoin="round"/>
<path d="M195.576 337.217C195.576 338.424 193.123 339.401 190.1 339.401C187.077 339.401 184.625 338.424 184.625 337.217L186.051 325.945H194.1L195.576 337.217Z" fill="white" stroke="#977E8B" stroke-width="4" stroke-linejoin="round"/>
<path d="M190.1 328.368C192.325 328.368 194.128 327.314 194.128 326.015C194.128 324.715 192.325 323.662 190.1 323.662C187.876 323.662 186.072 324.715 186.072 326.015C186.072 327.314 187.876 328.368 190.1 328.368Z" fill="#FE519E" stroke="#977E8B" stroke-width="4" stroke-linejoin="round"/>
<path d="M177.987 324.946C177.987 326.153 175.535 327.129 172.512 327.129C169.489 327.129 167.036 326.153 167.036 324.946L168.462 313.674H176.511L177.987 324.946Z" fill="white" stroke="#977E8B" stroke-width="4" stroke-linejoin="round"/>
<path d="M172.512 316.096C174.737 316.096 176.54 315.043 176.54 313.743C176.54 312.444 174.737 311.391 172.512 311.391C170.287 311.391 168.484 312.444 168.484 313.743C168.484 315.043 170.287 316.096 172.512 316.096Z" fill="#FE519E" stroke="#977E8B" stroke-width="4" stroke-linejoin="round"/>
<path d="M252.483 348.873C252.483 350.08 250.038 351.057 247.008 351.057C243.978 351.057 241.532 350.08 241.532 348.873L242.958 337.602H251.007L252.483 348.873Z" fill="white" stroke="#977E8B" stroke-width="4" stroke-linejoin="round"/>
<path d="M247.008 340.022C249.232 340.022 251.036 338.969 251.036 337.669C251.036 336.37 249.232 335.316 247.008 335.316C244.783 335.316 242.98 336.37 242.98 337.669C242.98 338.969 244.783 340.022 247.008 340.022Z" fill="#FE519E" stroke="#977E8B" stroke-width="4" stroke-linejoin="round"/>
<path d="M233.34 337.217C233.34 338.424 230.895 339.401 227.872 339.401C224.849 339.401 222.397 338.424 222.397 337.217L223.823 325.945H231.872L233.34 337.217Z" fill="white" stroke="#977E8B" stroke-width="4" stroke-linejoin="round"/>
<path d="M227.865 328.368C230.09 328.368 231.893 327.314 231.893 326.015C231.893 324.715 230.09 323.662 227.865 323.662C225.64 323.662 223.837 324.715 223.837 326.015C223.837 327.314 225.64 328.368 227.865 328.368Z" fill="#FE519E" stroke="#977E8B" stroke-width="4" stroke-linejoin="round"/>
<path d="M215.752 324.946C215.752 326.153 213.3 327.129 210.277 327.129C207.254 327.129 204.801 326.153 204.801 324.946L206.227 313.674H214.276L215.752 324.946Z" fill="white" stroke="#977E8B" stroke-width="4" stroke-linejoin="round"/>
<path d="M210.277 316.096C212.501 316.096 214.305 315.043 214.305 313.743C214.305 312.444 212.501 311.391 210.277 311.391C208.052 311.391 206.249 312.444 206.249 313.743C206.249 315.043 208.052 316.096 210.277 316.096Z" fill="#FE519E" stroke="#977E8B" stroke-width="4" stroke-linejoin="round"/>
<path d="M288.701 348.873C288.701 350.08 286.248 351.057 283.225 351.057C280.203 351.057 277.75 350.08 277.75 348.873L279.176 337.602H287.232L288.701 348.873Z" fill="white" stroke="#977E8B" stroke-width="4" stroke-linejoin="round"/>
<path d="M283.218 340.022C285.443 340.022 287.246 338.969 287.246 337.669C287.246 336.37 285.443 335.316 283.218 335.316C280.994 335.316 279.19 336.37 279.19 337.669C279.19 338.969 280.994 340.022 283.218 340.022Z" fill="#FE519E" stroke="#977E8B" stroke-width="4" stroke-linejoin="round"/>
<path d="M269.558 337.217C269.558 338.424 267.106 339.401 264.083 339.401C261.06 339.401 258.607 338.424 258.607 337.217L260.033 325.945H268.082L269.558 337.217Z" fill="white" stroke="#977E8B" stroke-width="4" stroke-linejoin="round"/>
<path d="M264.083 328.368C266.308 328.368 268.111 327.314 268.111 326.015C268.111 324.715 266.308 323.662 264.083 323.662C261.858 323.662 260.055 324.715 260.055 326.015C260.055 327.314 261.858 328.368 264.083 328.368Z" fill="#FE519E" stroke="#977E8B" stroke-width="4" stroke-linejoin="round"/>
<path d="M251.97 324.946C251.97 326.153 249.517 327.129 246.494 327.129C243.472 327.129 241.019 326.153 241.019 324.946L242.445 313.674H250.494L251.97 324.946Z" fill="white" stroke="#977E8B" stroke-width="4" stroke-linejoin="round"/>
<path d="M246.487 316.096C248.712 316.096 250.515 315.043 250.515 313.743C250.515 312.444 248.712 311.391 246.487 311.391C244.263 311.391 242.459 312.444 242.459 313.743C242.459 315.043 244.263 316.096 246.487 316.096Z" fill="#FE519E" stroke="#977E8B" stroke-width="4" stroke-linejoin="round"/>
<path d="M325.061 348.873C325.061 350.08 322.609 351.057 319.586 351.057C316.563 351.057 314.11 350.08 314.11 348.873L315.536 337.602H323.593L325.061 348.873Z" fill="white" stroke="#977E8B" stroke-width="4" stroke-linejoin="round"/>
<path d="M319.579 340.022C321.803 340.022 323.607 338.969 323.607 337.669C323.607 336.37 321.803 335.316 319.579 335.316C317.354 335.316 315.551 336.37 315.551 337.669C315.551 338.969 317.354 340.022 319.579 340.022Z" fill="#FE519E" stroke="#977E8B" stroke-width="4" stroke-linejoin="round"/>
<path d="M305.919 337.217C305.919 338.424 303.466 339.401 300.443 339.401C297.42 339.401 294.968 338.424 294.968 337.217L296.394 325.945H304.443L305.919 337.217Z" fill="white" stroke="#977E8B" stroke-width="4" stroke-linejoin="round"/>
<path d="M300.443 328.368C302.668 328.368 304.471 327.314 304.471 326.015C304.471 324.715 302.668 323.662 300.443 323.662C298.219 323.662 296.415 324.715 296.415 326.015C296.415 327.314 298.219 328.368 300.443 328.368Z" fill="#FE519E" stroke="#977E8B" stroke-width="4" stroke-linejoin="round"/>
<path d="M288.33 324.946C288.33 326.153 285.878 327.129 282.855 327.129C279.832 327.129 277.379 326.153 277.379 324.946L278.805 313.674H286.854L288.33 324.946Z" fill="white" stroke="#977E8B" stroke-width="4" stroke-linejoin="round"/>
<path d="M282.848 316.096C285.072 316.096 286.876 315.043 286.876 313.743C286.876 312.444 285.072 311.391 282.848 311.391C280.623 311.391 278.819 312.444 278.819 313.743C278.819 315.043 280.623 316.096 282.848 316.096Z" fill="#FE519E" stroke="#977E8B" stroke-width="4" stroke-linejoin="round"/>
<path d="M172.255 397.719H422.778" stroke="#AEE5F2" stroke-width="6" stroke-linejoin="round"/>
<path d="M180.811 359.906L222.924 387.847" stroke="#977E8B" stroke-width="4" stroke-linecap="round" stroke-linejoin="round"/>
<path d="M198.855 372.148L189.387 361.346H195.312L204.773 372.148H198.855Z" fill="#FE519E"/>
<path d="M198.848 372.148H204.773V374.263H198.848L195.02 371.703L189.38 367.966V361.346L198.848 372.148Z" fill="#DC9600"/>
<path d="M218.055 359.906L260.176 387.847" stroke="#977E8B" stroke-width="4" stroke-linecap="round" stroke-linejoin="round"/>
<path d="M250.558 381.666L241.09 370.863H247.015L256.476 381.666H250.558Z" fill="#FE519E"/>
<path d="M250.558 381.666H256.483V383.773H250.558L246.73 381.22L241.09 377.483V370.863L250.558 381.666Z" fill="#DC9600"/>
<path d="M254.786 359.906L296.907 387.847" stroke="#977E8B" stroke-width="4" stroke-linecap="round" stroke-linejoin="round"/>
<path d="M287.282 381.666L277.821 370.863H283.739L293.207 381.666H287.282Z" fill="#FE519E"/>
<path d="M287.282 381.666H293.207V383.773H287.282L283.454 381.22L277.814 377.483V370.863L287.282 381.666Z" fill="#DC9600"/>
<path d="M293.071 359.906L335.192 387.847" stroke="#977E8B" stroke-width="4" stroke-linecap="round" stroke-linejoin="round"/>
<path d="M325.575 381.666L316.107 370.863H322.031L331.492 381.666H325.575Z" fill="#FE519E"/>
<path d="M325.575 381.666H331.499V383.773H325.575L321.746 381.22L316.107 377.483V370.863L325.575 381.666Z" fill="#DC9600"/>
<path d="M329.432 359.906L371.553 387.847" stroke="#977E8B" stroke-width="4" stroke-linecap="round" stroke-linejoin="round"/>
<path d="M361.935 381.666L352.467 370.863H358.392L367.852 381.666H361.935Z" fill="#FE519E"/>
<path d="M361.935 381.666H367.859V383.773H361.935L358.106 381.22L352.467 377.483V370.863L361.935 381.666Z" fill="#DC9600"/>
<path d="M518.363 895.186C518.363 906.65 495.591 958.234 488.205 958.234H417.031C417.031 958.234 417.93 927.971 440.088 925.58C440.088 925.58 457.798 855.797 466.068 855.612C478.523 855.374 495.612 852.744 495.612 852.744C500.931 858.219 518.363 883.715 518.363 895.186Z" fill="#DAF3F9"/>
<path d="M414.793 964.417H488.226C495.612 964.417 518.384 906.651 518.384 895.217C511.882 890.273 489.631 885.806 481.746 901.745C471.693 922.09 461.726 953.452 457.819 957.789H414.793V964.417Z" fill="#AAD9F3"/>
<path d="M457.798 834.414L466.068 855.674C466.068 855.674 486.03 860.525 495.612 852.806V829.07C483.199 832.176 470.534 833.965 457.798 834.414Z" fill="#C36F0B"/>
<path d="M348.282 636.643C352.83 652.566 438.577 825.349 448.615 832.092C458.653 838.835 499.748 829.27 501.523 826.71C503.298 824.149 482.986 645.254 471.158 643.885C459.331 642.517 348.282 636.643 348.282 636.643Z" fill="#191821"/>
<path d="M591.511 661.124L637.853 965.216C637.932 965.732 638.178 966.201 638.547 966.54C638.916 966.879 639.385 967.067 639.87 967.069V967.069C640.156 967.068 640.438 967.003 640.699 966.878C640.96 966.753 641.193 966.571 641.385 966.343C641.577 966.115 641.723 965.846 641.813 965.554C641.903 965.262 641.936 964.953 641.909 964.647L614.496 656.918" stroke="#3F4D79" stroke-width="6" stroke-miterlimit="10"/>
<path d="M441.806 660.64L395.465 965.216C395.387 965.733 395.141 966.203 394.772 966.542C394.402 966.882 393.933 967.068 393.447 967.069V967.069C393.162 967.069 392.879 967.005 392.618 966.881C392.357 966.756 392.123 966.574 391.932 966.345C391.74 966.117 391.595 965.848 391.506 965.555C391.417 965.263 391.386 964.953 391.415 964.647L418.849 656.441" stroke="#3F4D79" stroke-width="6" stroke-miterlimit="10"/>
<path d="M642.152 630.377C642.152 633.13 637.874 635.76 630.174 638.066C610.212 644.148 567.257 648.346 517.528 648.346C468.478 648.346 426.043 644.263 405.71 638.312L404.883 638.066C397.204 635.76 392.905 633.13 392.905 630.377C392.921 629.828 393.081 629.294 393.369 628.84C398.866 619.651 452.358 612.432 517.528 612.432C586.356 612.401 642.152 620.451 642.152 630.377Z" fill="white" stroke="#977E8B" stroke-width="6" stroke-miterlimit="10"/>
<path d="M642.152 630.377V645.755C642.152 655.681 586.356 663.723 517.521 663.723C465.761 663.723 421.38 659.172 402.544 652.698C396.335 650.56 392.898 648.215 392.898 645.778V630.4C392.898 633.153 397.176 635.782 404.876 638.089L405.703 638.335C426.036 644.286 468.442 648.369 517.521 648.369C567.257 648.369 610.205 644.171 630.167 638.089C637.853 635.736 642.152 633.13 642.152 630.377Z" fill="white" stroke="#977E8B" stroke-width="6" stroke-miterlimit="10"/>
<path d="M385.705 852.805C391.408 856.095 418.964 872.796 418.964 886.282C418.964 899.768 392.428 919.597 383.216 929.078C374.005 938.558 365.222 965.115 355.198 966.468C345.174 967.821 288.359 966.468 288.359 966.468C288.359 966.468 283.411 945.232 308.243 936.736C337.937 926.579 347.918 875.763 347.918 875.763L385.705 852.805Z" fill="#DAF3F9"/>
<path d="M418.971 884.744C418.971 898.253 392.435 918.06 383.224 927.54C374.012 937.02 365.229 963.577 355.205 964.931C345.181 966.284 288.366 964.931 288.366 964.931" stroke="#AAD9F3" stroke-width="8" stroke-miterlimit="10" stroke-linecap="round"/>
<path d="M375.566 835.896C375.566 835.896 375.075 845.123 385.712 852.812C396.349 860.501 357.942 876.393 347.925 875.755L336.269 854.765C336.269 854.765 367.489 843.47 375.566 835.896Z" fill="#C36F0B"/>
<path d="M620.877 553.88C620.877 553.88 644.291 637.473 587.789 643.455C518.363 650.805 349.708 637.412 349.708 637.412C349.708 637.412 382.589 761.201 384.357 830.662C384.357 830.662 356.124 856.711 321.86 856.035C321.86 856.035 174.358 637.196 220.914 566.29C262.137 503.503 450.704 501.051 450.704 501.051C450.704 501.051 458.425 553.188 620.877 553.88Z" fill="#191821"/>
<path d="M667.682 382.319C652.803 445.19 637.917 492.399 649.395 548.65C649.395 548.65 602.184 577.353 506.399 547.966C464.335 535.049 432.966 497.835 432.966 497.835C432.966 497.835 466.382 465.127 463.858 438.009C461.669 414.435 452.144 372.177 446.569 334.21C426.856 322.884 402.665 305.554 385.826 281.926C385.826 281.926 387.879 266.179 423.455 217.971C451.303 180.242 510.435 177.681 533.605 175.559C567.827 168.063 594.427 166.617 610.646 166.925C625.447 167.209 636.512 175.229 645.724 187.684C672.131 223.599 690.497 285.932 667.682 382.319Z" fill="#722D54"/>
<path d="M478.78 349.85C455.666 380.874 425.744 412.199 401.781 411.076C326.038 407.516 265.83 379.744 243.75 365.997C235.686 365.551 209.4 359.407 205.165 358.508C200.666 357.554 175.471 350.642 176.212 346.598C176.954 342.553 182.165 329.19 184.24 325.838C186.315 322.486 203.233 311.137 215.125 310.222C224.999 309.453 241.147 324.246 246.345 329.29C264.375 328.029 377.677 316.942 377.677 316.942C377.677 316.942 382.924 306.27 392.028 290.031C422.528 326.715 469.369 346.206 478.78 349.85Z" fill="#C36F0B"/>
<path d="M205.165 358.492C200.666 357.539 176.533 351.011 174.622 347.436C170.829 340.354 176.148 330.959 179.477 328.375C182.529 325.999 203.24 311.099 215.125 310.184C215.125 310.184 196.588 332.443 205.143 358.492" fill="#B65A18"/>
<path d="M478.794 349.852C474.588 355.48 470.167 361.139 465.59 366.598C454.376 361.277 415.007 340.071 389.697 294.185C390.41 292.839 391.223 291.44 392.036 290.002C422.543 326.724 469.397 346.207 478.794 349.852Z" fill="#B65A18"/>
<path d="M385.79 281.121C418.914 327.608 480.462 349.705 480.462 349.705L496.097 327.838" stroke="white" stroke-width="6" stroke-miterlimit="10" stroke-linecap="round"/>
<path d="M628.463 171.607C593.835 151.901 590.72 93.2969 590.72 93.2969L515.39 125.474L535.088 174.913C535.088 174.913 547.857 184.747 589.558 184.002C631.258 183.256 628.463 171.607 628.463 171.607Z" fill="#C36F0B"/>
<path d="M561.168 105.922C557.468 116.086 553.162 116.386 553.162 116.386C553.162 116.386 551.443 154.331 529.72 160.705C529.641 160.732 529.56 160.753 529.477 160.766L515.39 125.474L561.168 105.922Z" fill="#B65A18"/>
<path d="M534.347 177.304C534.347 177.304 547.85 186.385 589.558 186.385C628.499 186.385 627.722 173.99 627.722 173.99" stroke="white" stroke-width="6" stroke-miterlimit="10" stroke-linecap="round"/>
<path d="M559.735 111.498C559.735 111.498 546.467 133.795 533.199 139.008C518.569 144.782 493.809 143.183 487.349 123.684C481.952 107.415 502.628 84.5868 507.333 38.6616C511.012 2.87026 565.453 45.5123 562.594 78.4973L559.735 111.498Z" fill="#C36F0B"/>
<path d="M516.174 11.0978C516.174 11.0978 499.983 6.70746 492.312 17.6948C485.182 27.9285 486.458 55.5083 520.559 60.752C541.455 63.9583 528.073 90.4077 533.969 93.3218C539.865 96.2358 548.549 70.8551 554.096 90.9613C558.223 105.916 558.188 115.735 574.379 121.178C590.57 126.622 594.676 117.849 594.676 117.849C594.676 117.849 589.272 98.627 605.449 66.0112C613.384 49.9877 602.105 25.0068 583.448 22.4618C564.79 19.9168 563.485 9.06792 550.117 7.63012C533.228 5.81556 523.945 28.659 515.34 26.4139C506.734 24.1687 511.383 15.6495 516.174 11.0978Z" fill="#642648"/>
<path d="M486.758 20.7246C479.628 30.9584 483.264 56.2853 523.332 60.0144" stroke="#3F4D79" stroke-width="3" stroke-miterlimit="10"/>
<path d="M513.058 25.1214C513.058 25.1214 537.37 100.587 607.816 86.7317C607.816 86.7317 622.788 44.0204 608.358 26.39C592.188 6.58368 562.38 -5.5723 540.842 2.55475C519.304 10.6818 513.058 25.1214 513.058 25.1214Z" fill="black"/>
<path d="M607.075 87.5231C607.075 87.5231 625.319 32.4559 595.824 27.981C584.296 26.228 563.442 40.3677 561.745 81.8641" stroke="black" stroke-width="3" stroke-miterlimit="10"/>
<path d="M561.011 81.8652C561.011 81.8652 586.299 121.024 628.741 123.277C671.183 125.53 607.83 86.7322 607.83 86.7322C607.83 86.7322 590.477 89.8231 561.011 81.8652Z" fill="#FE519E"/>
</svg>
