<svg width="937" height="604" viewBox="0 0 937 604" fill="none" xmlns="http://www.w3.org/2000/svg">
<g clip-path="url(#clip0)">
<path d="M441 95H353C351.674 95 350.402 94.4732 349.464 93.5355C348.527 92.5979 348 91.3261 348 90C348 88.6739 348.527 87.4021 349.464 86.4645C350.402 85.5268 351.674 85 353 85H441C442.326 85 443.598 85.5268 444.536 86.4645C445.473 87.4021 446 88.6739 446 90C446 91.3261 445.473 92.5979 444.536 93.5355C443.598 94.4732 442.326 95 441 95V95Z" fill="#977E8B"/>
<path d="M509 130H353C351.674 130 350.402 129.473 349.464 128.536C348.527 127.598 348 126.326 348 125C348 123.674 348.527 122.402 349.464 121.464C350.402 120.527 351.674 120 353 120H509C510.326 120 511.598 120.527 512.536 121.464C513.473 122.402 514 123.674 514 125C514 126.326 513.473 127.598 512.536 128.536C511.598 129.473 510.326 130 509 130Z" fill="#977E8B"/>
<path d="M470 165H353C351.674 165 350.402 164.473 349.464 163.536C348.527 162.598 348 161.326 348 160C348 158.674 348.527 157.402 349.464 156.464C350.402 155.527 351.674 155 353 155H470C471.326 155 472.598 155.527 473.536 156.464C474.473 157.402 475 158.674 475 160C475 161.326 474.473 162.598 473.536 163.536C472.598 164.473 471.326 165 470 165Z" fill="#977E8B"/>
<path d="M509 200H353C351.674 200 350.402 199.473 349.464 198.536C348.527 197.598 348 196.326 348 195C348 193.674 348.527 192.402 349.464 191.464C350.402 190.527 351.674 190 353 190H509C510.326 190 511.598 190.527 512.536 191.464C513.473 192.402 514 193.674 514 195C514 196.326 513.473 197.598 512.536 198.536C511.598 199.473 510.326 200 509 200V200Z" fill="#977E8B"/>
<path d="M149.304 230.016C198.717 230.016 238.774 189.959 238.774 140.546C238.774 91.1333 198.717 51.0762 149.304 51.0762C99.8909 51.0762 59.8337 91.1333 59.8337 140.546C59.8337 189.959 99.8909 230.016 149.304 230.016Z" fill="#FE519E"/>
<path d="M154.304 56.125H144.304V46.125H154.304V56.125ZM146.304 54.125H152.304V48.125H146.304V54.125Z" fill="#3F3D56"/>
<path d="M205.539 50.125H152.539V52.125H205.539V50.125Z" fill="#3F3D56"/>
<path d="M205.539 53.2065C206.689 53.2065 207.622 52.274 207.622 51.1238C207.622 49.9735 206.689 49.041 205.539 49.041C204.389 49.041 203.456 49.9735 203.456 51.1238C203.456 52.274 204.389 53.2065 205.539 53.2065Z" fill="#3F3D56"/>
<path d="M145.539 50.125H93.5393V52.125H145.539V50.125Z" fill="#3F3D56"/>
<path d="M93.539 53.2065C94.6893 53.2065 95.6218 52.274 95.6218 51.1238C95.6218 49.9735 94.6893 49.041 93.539 49.041C92.3888 49.041 91.4563 49.9735 91.4563 51.1238C91.4563 52.274 92.3888 53.2065 93.539 53.2065Z" fill="#3F3D56"/>
<path d="M243.539 145.311H233.539V135.311H243.539V145.311ZM235.539 143.311H241.539V137.311H235.539V143.311Z" fill="#3F3D56"/>
<path d="M239.539 144.545H237.539V196.545H239.539V144.545Z" fill="#3F3D56"/>
<path d="M238.539 198.628C239.689 198.628 240.622 197.696 240.622 196.546C240.622 195.395 239.689 194.463 238.539 194.463C237.389 194.463 236.456 195.395 236.456 196.546C236.456 197.696 237.389 198.628 238.539 198.628Z" fill="#3F3D56"/>
<path d="M239.539 84.5449H237.539V136.545H239.539V84.5449Z" fill="#3F3D56"/>
<path d="M238.539 86.6284C239.689 86.6284 240.622 85.6959 240.622 84.5457C240.622 83.3954 239.689 82.4629 238.539 82.4629C237.389 82.4629 236.456 83.3954 236.456 84.5457C236.456 85.6959 237.389 86.6284 238.539 86.6284Z" fill="#3F3D56"/>
<path d="M64.5393 145.311H54.5393V135.311H64.5393V145.311ZM56.5393 143.311H62.5393V137.311H56.5393V143.311Z" fill="#3F3D56"/>
<path d="M60.5393 144.545H58.5393V196.545H60.5393V144.545Z" fill="#3F3D56"/>
<path d="M59.5391 198.628C60.6893 198.628 61.6218 197.696 61.6218 196.546C61.6218 195.395 60.6893 194.463 59.5391 194.463C58.3888 194.463 57.4563 195.395 57.4563 196.546C57.4563 197.696 58.3888 198.628 59.5391 198.628Z" fill="#3F3D56"/>
<path d="M60.5393 82.5449H58.5393V136.545H60.5393V82.5449Z" fill="#3F3D56"/>
<path d="M59.539 86.6284C60.6893 86.6284 61.6218 85.6959 61.6218 84.5456C61.6218 83.3954 60.6893 82.4629 59.539 82.4629C58.3888 82.4629 57.4563 83.3954 57.4563 84.5456C57.4563 85.6959 58.3888 86.6284 59.539 86.6284Z" fill="#3F3D56"/>
<path d="M154.304 235.125H144.304V225.125H154.304V235.125ZM146.304 233.125H152.304V227.125H146.304V233.125Z" fill="#3F3D56"/>
<path d="M206.539 229.125H153.539V231.125H206.539V229.125Z" fill="#3F3D56"/>
<path d="M205.539 232.207C206.689 232.207 207.622 231.274 207.622 230.124C207.622 228.974 206.689 228.041 205.539 228.041C204.389 228.041 203.456 228.974 203.456 230.124C203.456 231.274 204.389 232.207 205.539 232.207Z" fill="#3F3D56"/>
<path d="M145.539 229.125H93.5393V231.125H145.539V229.125Z" fill="#3F3D56"/>
<path d="M93.5391 232.207C94.6893 232.207 95.6218 231.274 95.6218 230.124C95.6218 228.974 94.6893 228.041 93.5391 228.041C92.3888 228.041 91.4563 228.974 91.4563 230.124C91.4563 231.274 92.3888 232.207 93.5391 232.207Z" fill="#3F3D56"/>
<path d="M562 305H17C12.4929 304.995 8.17178 303.202 4.98476 300.015C1.79773 296.828 0.00505274 292.507 0 288V17C0.00505274 12.4929 1.79773 8.1718 4.98476 4.98477C8.17178 1.79775 12.4929 0.00505274 17 0H562C566.507 0.00507387 570.828 1.79777 574.015 4.98479C577.202 8.17181 578.995 12.4929 579 17V288C578.995 292.507 577.202 296.828 574.015 300.015C570.828 303.202 566.507 304.995 562 305V305ZM17 2C13.0231 2.0045 9.21043 3.58629 6.39836 6.39836C3.58629 9.21043 2.0045 13.0231 2 17V288C2.0045 291.977 3.58629 295.79 6.39836 298.602C9.21043 301.414 13.0231 302.996 17 303H562C565.977 302.996 569.79 301.414 572.602 298.602C575.414 295.79 576.996 291.977 577 288V17C576.996 13.0231 575.414 9.21043 572.602 6.39836C569.79 3.58629 565.977 2.0045 562 2H17Z" fill="#3F3D56"/>
<path d="M330 95C332.761 95 335 92.7614 335 90C335 87.2386 332.761 85 330 85C327.239 85 325 87.2386 325 90C325 92.7614 327.239 95 330 95Z" fill="#CCCCCC"/>
<path d="M330 130C332.761 130 335 127.761 335 125C335 122.239 332.761 120 330 120C327.239 120 325 122.239 325 125C325 127.761 327.239 130 330 130Z" fill="#CCCCCC"/>
<path d="M330 165C332.761 165 335 162.761 335 160C335 157.239 332.761 155 330 155C327.239 155 325 157.239 325 160C325 162.761 327.239 165 330 165Z" fill="#CCCCCC"/>
<path d="M330 200C332.761 200 335 197.761 335 195C335 192.239 332.761 190 330 190C327.239 190 325 192.239 325 195C325 197.761 327.239 200 330 200Z" fill="#CCCCCC"/>
<path d="M438.057 239.028H407.52C406.523 239.027 405.567 238.63 404.862 237.925C404.157 237.22 403.761 236.264 403.76 235.267V199.231C403.761 198.234 404.157 197.278 404.862 196.573C405.567 195.868 406.523 195.472 407.52 195.471H438.057C439.054 195.472 440.01 195.868 440.715 196.573C441.42 197.278 441.817 198.234 441.818 199.231V235.267C441.817 236.264 441.42 237.22 440.715 237.925C440.01 238.63 439.054 239.027 438.057 239.028V239.028Z" fill="#FF6584"/>
<path d="M756.806 602.549L753.416 603.38C754.946 603.6 756.476 603.809 758.006 603.999H814.546C818.786 603.459 823.002 602.793 827.195 601.999C852.454 597.342 876.559 587.793 898.155 573.889C911.425 565.259 924.076 554.649 930.945 540.399C940.276 521.049 937.016 496.55 923.695 479.7C918.846 473.62 912.875 468.528 906.106 464.7C905.096 464.12 904.076 463.569 903.036 463.049C891.76 457.383 879.097 455.065 866.546 456.369C845.195 458.699 825.496 471.739 814.126 489.959C801.556 510.079 799.146 534.699 797.046 558.329C793.235 546.069 778.936 538.579 766.386 541.289C753.846 543.989 744.166 555.7 742.606 568.44C741.076 580.9 746.735 593.689 756.166 601.999C756.376 602.179 756.586 602.369 756.806 602.549Z" fill="#977E8B"/>
<path d="M800.405 604H803.235C803.516 603.776 803.733 603.483 803.865 603.15C804.026 602.77 804.175 602.38 804.346 602C826.249 549.039 860.99 502.363 905.436 466.18C905.668 466.015 905.853 465.79 905.97 465.53C906.088 465.27 906.135 464.984 906.106 464.7C906.048 464.321 905.892 463.964 905.653 463.665C905.413 463.366 905.099 463.135 904.742 462.996C904.385 462.857 903.998 462.815 903.619 462.873C903.24 462.932 902.884 463.09 902.586 463.33C884.967 477.679 868.805 493.73 854.336 511.25C831.699 538.549 813.377 569.154 800.005 602C799.996 602.03 799.985 602.05 799.976 602.08C799.815 602.401 799.771 602.767 799.849 603.116C799.927 603.466 800.124 603.778 800.405 604Z" fill="white"/>
<path d="M701.273 382.034C701.277 379.015 702.477 376.122 704.612 373.987C706.746 371.853 709.64 370.652 712.659 370.649C712.769 370.649 712.877 370.655 712.986 370.661L748.194 342.597L722.963 317.366C721.926 316.333 721.103 315.106 720.541 313.755C719.98 312.403 719.69 310.955 719.688 309.491C719.687 308.028 719.974 306.579 720.533 305.227C721.093 303.875 721.913 302.646 722.948 301.611C723.983 300.577 725.211 299.756 726.563 299.197C727.916 298.637 729.365 298.35 730.828 298.352C732.291 298.353 733.74 298.643 735.091 299.205C736.442 299.767 737.669 300.59 738.702 301.626L779.257 342.181L724.038 382.34C723.958 385.332 722.702 388.172 720.544 390.245C718.385 392.319 715.497 393.459 712.504 393.418C709.512 393.378 706.655 392.161 704.553 390.03C702.451 387.9 701.273 385.027 701.273 382.034V382.034Z" fill="#FFB8B8"/>
<path d="M659.944 590.049L648.037 585.604L659.517 537.561L677.09 544.122L659.944 590.049Z" fill="#FFB8B8"/>
<path d="M640.29 578.836L663.766 587.6L658.368 602.058L620.946 588.088L621.137 587.575C622.518 583.877 625.312 580.878 628.903 579.239C632.495 577.6 636.591 577.455 640.29 578.836V578.836Z" fill="#2F2E41"/>
<path d="M767.066 590.229H754.356L748.31 541.205L767.069 541.206L767.066 590.229Z" fill="#FFB8B8"/>
<path d="M744.731 586.598H769.79V602.031H729.844V601.484C729.844 599.53 730.23 597.594 730.978 595.788C731.726 593.981 732.822 592.34 734.205 590.958C735.587 589.576 737.228 588.479 739.034 587.731C740.841 586.983 742.776 586.598 744.731 586.598V586.598Z" fill="#2F2E41"/>
<path d="M750.227 571.591C749.76 571.139 749.396 570.592 749.161 569.986C748.925 569.381 748.824 568.731 748.864 568.083C751.132 530.642 731.399 462.587 725.297 442.621C725.132 442.064 724.829 441.558 724.415 441.151C724.002 440.744 723.491 440.449 722.932 440.294C722.361 440.131 721.758 440.113 721.178 440.244C720.599 440.374 720.062 440.648 719.616 441.04C686.654 469.751 676.817 550.755 675.18 566.702C675.118 567.298 674.939 567.875 674.651 568.401C674.363 568.926 673.974 569.388 673.505 569.761C673.036 570.133 672.497 570.408 671.92 570.569C671.344 570.731 670.741 570.775 670.146 570.7L653.695 568.644C653.075 568.567 652.478 568.361 651.943 568.04C651.407 567.72 650.943 567.291 650.582 566.781C650.221 566.272 649.97 565.693 649.845 565.081C649.719 564.469 649.723 563.838 649.855 563.228L692.991 363.787L693.017 363.667L693.096 363.572C703.527 351.054 733.749 355.928 735.03 356.142L735.163 356.164L735.267 356.25C774.077 388.434 772.11 537.616 771.322 567.195C771.291 568.292 770.86 569.34 770.11 570.142C769.36 570.944 768.343 571.444 767.251 571.548L753.777 572.831C753.634 572.844 753.491 572.851 753.348 572.851C752.183 572.852 751.064 572.4 750.227 571.591V571.591Z" fill="#2F2E41"/>
<path d="M727.419 275.849C740.984 275.849 751.98 264.852 751.98 251.288C751.98 237.723 740.984 226.727 727.419 226.727C713.854 226.727 702.858 237.723 702.858 251.288C702.858 264.852 713.854 275.849 727.419 275.849Z" fill="#FFB8B8"/>
<path d="M751.535 297.542C751.535 297.542 728.728 270.588 710.067 292.359C698.06 306.367 691.71 324.349 692.258 342.791L692.961 366.484L735.985 359.745L751.535 297.542Z" fill="#FE519E"/>
<path d="M723.438 255.536L712.885 243.104C710.166 239.901 707.321 236.411 706.937 232.226C706.515 227.639 709.305 223.18 713.12 220.598C716.934 218.015 721.618 217.043 726.211 216.686C734.729 216.025 743.693 217.433 750.695 222.328C757.698 227.223 762.279 236.06 760.572 244.432C759.227 251.024 754.273 257.338 756.199 263.784C758.306 270.837 766.945 273.001 774 275.104C785.84 278.634 797.146 285.584 803.351 296.269C809.556 306.953 809.529 321.685 801.258 330.863C795.901 336.806 787.823 339.812 779.835 340.264C771.848 340.716 763.897 338.835 756.322 336.262C749.345 333.892 742.444 330.844 736.951 325.933C731.459 321.021 727.502 313.993 727.673 306.627C727.837 299.607 731.597 293.213 733.142 286.363C734.36 280.627 734.04 274.671 732.215 269.099C730.389 263.526 727.123 258.536 722.746 254.633" fill="#2F2E41"/>
<path d="M697.357 477.334H666.82C665.823 477.333 664.868 476.937 664.163 476.232C663.458 475.527 663.061 474.571 663.06 473.574V437.538C663.061 436.541 663.458 435.585 664.163 434.88C664.868 434.175 665.823 433.778 666.82 433.777H697.357C698.355 433.778 699.31 434.175 700.016 434.88C700.721 435.585 701.117 436.541 701.118 437.538V473.574C701.117 474.571 700.721 475.527 700.016 476.232C699.31 476.937 698.355 477.333 697.357 477.334V477.334Z" fill="#3F4D79"/>
<path d="M688.307 446.513C686.85 444.24 686.27 441.514 686.676 438.845C687.082 436.175 688.445 433.745 690.511 432.007L707.225 300.313C707.587 297.5 708.96 294.914 711.088 293.039C713.216 291.163 715.954 290.126 718.791 290.121L718.946 290.122C720.64 290.144 722.309 290.535 723.836 291.268C725.363 292.001 726.713 293.057 727.79 294.364C728.868 295.671 729.647 297.198 730.075 298.837C730.503 300.476 730.568 302.188 730.267 303.855L706.766 433.917L706.771 433.923C707.753 435.262 708.425 436.804 708.736 438.436C709.047 440.068 708.991 441.749 708.57 443.356C708.15 444.964 707.376 446.457 706.305 447.727C705.235 448.998 703.894 450.013 702.381 450.7C700.96 451.345 699.416 451.677 697.854 451.673C695.958 451.681 694.09 451.213 692.422 450.311C690.754 449.41 689.339 448.103 688.307 446.513Z" fill="#FFB8B8"/>
<path d="M854.421 604H597.421C597.156 604 596.902 603.895 596.714 603.707C596.527 603.52 596.421 603.265 596.421 603C596.421 602.735 596.527 602.48 596.714 602.293C596.902 602.105 597.156 602 597.421 602H854.421C854.687 602 854.941 602.105 855.128 602.293C855.316 602.48 855.421 602.735 855.421 603C855.421 603.265 855.316 603.52 855.128 603.707C854.941 603.895 854.687 604 854.421 604Z" fill="#3F3D56"/>
</g>
<defs>
<clipPath id="clip0">
<rect width="936.268" height="604" fill="white"/>
</clipPath>
</defs>
</svg>
