<svg width="685" height="971" viewBox="0 0 685 971" fill="none" xmlns="http://www.w3.org/2000/svg">
<path d="M41.4045 369.953H335.043C336.641 369.952 338.225 370.285 339.702 370.932C341.179 371.58 342.521 372.529 343.652 373.726C344.783 374.923 345.68 376.345 346.292 377.909C346.904 379.474 347.219 381.151 347.219 382.844V386.258C347.217 389.677 345.933 392.956 343.65 395.374C341.367 397.791 338.271 399.149 335.043 399.149H42.001" fill="#977E8B"/>
<path d="M41.4045 369.953H335.043C336.641 369.952 338.225 370.285 339.702 370.932C341.179 371.58 342.521 372.529 343.652 373.726C344.783 374.923 345.68 376.345 346.292 377.909C346.904 379.474 347.219 381.151 347.219 382.844V386.258C347.217 389.677 345.933 392.956 343.65 395.374C341.367 397.791 338.271 399.149 335.043 399.149H42.001" stroke="#3F4D79" stroke-width="6" stroke-miterlimit="10" stroke-linecap="round"/>
<path d="M265.077 542.354V399.629H291.589V541.7" fill="#977E8B"/>
<path d="M265.077 408.591V399.629H291.589V430.778L265.077 408.591Z" fill="#F0E1D4"/>
<path d="M265.077 531.46V399.629H291.589V540.32" stroke="#3F4D79" stroke-width="6" stroke-miterlimit="10" stroke-linecap="round"/>
<path d="M292.665 357.129V365.031L184.868 337.28L77.0698 365.031V357.129L173.583 323.997V226.191H197.558V324.484L292.665 357.129Z" fill="#977E8B" stroke="#FE519E" stroke-width="6" stroke-miterlimit="10"/>
<path d="M352.766 292.635H45.6965C42.0765 292.635 39.1079 289.382 38.8405 285.242C38.8151 284.811 38.7693 284.382 38.7033 283.956L3.16155 79.9277C2.82851 78.2165 3.01324 76.4376 3.68946 74.8439C4.21231 73.5739 5.0672 72.4888 6.15324 71.7167C7.23928 70.9446 8.51115 70.5177 9.81878 70.4863H316.888C320.508 70.4863 323.477 73.7472 323.744 77.8869C323.769 78.3152 323.815 78.7419 323.881 79.1652L359.409 283.201C359.742 284.912 359.557 286.691 358.881 288.285C358.358 289.551 357.505 290.633 356.422 291.404C355.339 292.175 354.07 292.602 352.766 292.635V292.635Z" fill="#977E8B" stroke="#FE519E" stroke-width="6" stroke-miterlimit="10"/>
<path d="M344.23 282.832H51.298C47.8014 282.832 44.9699 279.535 44.9699 275.453L12.0608 86.4511C12.0608 82.3768 14.8923 79.0723 18.3889 79.0723H311.314C314.804 79.0723 317.642 82.3768 317.642 86.4511L350.551 275.453C350.551 279.535 347.72 282.832 344.23 282.832Z" fill="#977E8B" stroke="#FE519E" stroke-width="6" stroke-miterlimit="10"/>
<path d="M432.2 915.093L441.339 848.611C410.905 852.243 397.227 848.611 397.227 848.611L407.635 899.116C407.408 907.308 391.18 940.149 382.596 942.924C374.013 945.698 413.305 954.13 432.2 915.093Z" fill="#FFCFC9"/>
<path d="M360.047 969.069H434.689C434.689 969.069 447.427 943.65 445.439 926.728C442.895 904.94 431.549 902.391 431.549 902.391C421.079 902.391 423.774 930.047 403.795 939.684C393.84 944.485 385.325 941.471 376.714 944.252C357.469 950.469 360.047 969.069 360.047 969.069Z" fill="#977E8B"/>
<path d="M317.978 607.848C324.608 620.717 367.067 711.115 397.234 848.611C397.234 848.611 411.378 853.339 441.346 848.611C441.346 848.611 468.64 682.21 438.556 629.04L317.978 607.848Z" fill="#642648"/>
<path d="M554.923 437.982C554.923 437.982 597.753 551.613 574.854 594.942C536.693 667.096 317.978 607.848 317.978 607.848C317.978 607.848 365.73 669.994 310.19 847.514C310.19 847.514 308.188 854.733 265.275 848.967C265.275 848.967 212.676 592.959 212.669 538.403C212.669 493.738 288.086 479.837 411.405 489.22C411.405 489.22 427.695 473.722 439.968 441.287C439.968 441.243 475.894 453.14 554.923 437.982Z" fill="#722D54"/>
<path d="M301.249 915.093L310.388 848.611C279.954 852.243 265.591 848.611 265.591 848.611L276.684 899.116C276.458 907.308 260.229 940.149 251.646 942.924C243.062 945.698 282.354 954.13 301.249 915.093Z" fill="#FFCFC9"/>
<path d="M229.096 969.069H303.738C303.738 969.069 316.476 943.65 314.488 926.728C311.945 904.94 300.598 902.391 300.598 902.391C290.129 902.391 292.823 930.047 272.845 939.684C262.89 944.485 254.374 941.471 245.763 944.252C226.518 950.469 229.096 969.069 229.096 969.069Z" fill="#977E8B"/>
<path d="M585.858 279.962C573.832 332.006 557.062 422.934 556.589 435.265C556.116 447.597 474.557 455.477 438.254 444.14C438.254 444.14 428.223 383.033 425.714 349.93C406.689 378.254 387.279 400.26 374.088 400.26C325.684 400.26 245.839 371.507 239.785 364.607L243.302 345.216C263.315 345.71 361.521 333.189 361.521 333.189C361.521 333.189 400.545 228.012 426.064 206.29L426.173 206.188C442.93 189.803 486.431 184.553 496.181 182.011C506.266 179.382 557.7 171.988 557.7 171.988C575.149 183.928 596.56 233.612 585.858 279.962Z" fill="#F3E7DD"/>
<path d="M438.439 200.206C438.437 201.422 438.084 202.61 437.427 203.608C436.771 204.607 435.841 205.369 434.764 205.792C433.687 206.216 432.514 206.28 431.401 205.978C430.289 205.675 429.29 205.019 428.539 204.098C431.505 201.744 434.694 199.724 438.055 198.07C438.309 198.75 438.439 199.475 438.439 200.206V200.206Z" fill="#977E8B"/>
<path d="M456.073 206.175C459.181 206.175 461.702 203.506 461.702 200.213C461.702 196.92 459.181 194.25 456.073 194.25C452.964 194.25 450.444 196.92 450.444 200.213C450.444 203.506 452.964 206.175 456.073 206.175Z" fill="#977E8B"/>
<path d="M479.342 206.175C482.451 206.175 484.971 203.506 484.971 200.213C484.971 196.92 482.451 194.25 479.342 194.25C476.234 194.25 473.713 196.92 473.713 200.213C473.713 203.506 476.234 206.175 479.342 206.175Z" fill="#977E8B"/>
<path d="M502.605 206.175C505.714 206.175 508.234 203.506 508.234 200.213C508.234 196.92 505.714 194.25 502.605 194.25C499.496 194.25 496.976 196.92 496.976 200.213C496.976 203.506 499.496 206.175 502.605 206.175Z" fill="#977E8B"/>
<path d="M525.874 206.175C528.983 206.175 531.503 203.506 531.503 200.213C531.503 196.92 528.983 194.25 525.874 194.25C522.765 194.25 520.245 196.92 520.245 200.213C520.245 203.506 522.765 206.175 525.874 206.175Z" fill="#977E8B"/>
<path d="M549.137 206.175C552.246 206.175 554.766 203.506 554.766 200.213C554.766 196.92 552.246 194.25 549.137 194.25C546.028 194.25 543.508 196.92 543.508 200.213C543.508 203.506 546.028 206.175 549.137 206.175Z" fill="#977E8B"/>
<path d="M577.96 201.164C577.786 202.287 577.312 203.333 576.594 204.18C575.877 205.027 574.945 205.639 573.91 205.943C572.875 206.248 571.779 206.232 570.752 205.897C569.725 205.563 568.81 204.924 568.114 204.057C567.419 203.189 566.973 202.129 566.828 201.001C566.683 199.874 566.846 198.726 567.297 197.693C567.748 196.66 568.469 195.786 569.375 195.173C570.28 194.56 571.332 194.235 572.406 194.235C573.365 194.219 574.31 194.47 575.149 194.961C576.102 197.002 577.048 199.014 577.96 201.164Z" fill="#977E8B"/>
<path d="M426.804 216.901C426.817 218.363 426.321 219.778 425.411 220.878C424.502 221.978 423.242 222.685 421.873 222.864C420.503 223.044 419.119 222.683 417.984 221.851C416.849 221.019 416.042 219.774 415.718 218.353C417.499 215.79 419.405 213.327 421.429 210.975C422.872 211.042 424.236 211.695 425.236 212.798C426.237 213.902 426.799 215.371 426.804 216.901V216.901Z" fill="#977E8B"/>
<path d="M444.438 222.872C447.547 222.872 450.067 220.203 450.067 216.91C450.067 213.617 447.547 210.947 444.438 210.947C441.329 210.947 438.809 213.617 438.809 216.91C438.809 220.203 441.329 222.872 444.438 222.872Z" fill="#977E8B"/>
<path d="M467.707 222.872C470.816 222.872 473.336 220.203 473.336 216.91C473.336 213.617 470.816 210.947 467.707 210.947C464.599 210.947 462.079 213.617 462.079 216.91C462.079 220.203 464.599 222.872 467.707 222.872Z" fill="#977E8B"/>
<path d="M490.97 222.872C494.079 222.872 496.599 220.203 496.599 216.91C496.599 213.617 494.079 210.947 490.97 210.947C487.861 210.947 485.341 213.617 485.341 216.91C485.341 220.203 487.861 222.872 490.97 222.872Z" fill="#977E8B"/>
<path d="M514.24 222.872C517.348 222.872 519.868 220.203 519.868 216.91C519.868 213.617 517.348 210.947 514.24 210.947C511.131 210.947 508.611 213.617 508.611 216.91C508.611 220.203 511.131 222.872 514.24 222.872Z" fill="#977E8B"/>
<path d="M537.502 222.872C540.611 222.872 543.131 220.203 543.131 216.91C543.131 213.617 540.611 210.947 537.502 210.947C534.393 210.947 531.873 213.617 531.873 216.91C531.873 220.203 534.393 222.872 537.502 222.872Z" fill="#977E8B"/>
<path d="M560.772 222.872C563.88 222.872 566.4 220.203 566.4 216.91C566.4 213.617 563.88 210.947 560.772 210.947C557.663 210.947 555.143 213.617 555.143 216.91C555.143 220.203 557.663 222.872 560.772 222.872Z" fill="#977E8B"/>
<path d="M585.001 222.771C584.685 222.835 584.363 222.867 584.041 222.865C582.748 222.863 581.495 222.389 580.492 221.524C579.49 220.658 578.799 219.453 578.537 218.112C578.275 216.77 578.457 215.374 579.052 214.158C579.647 212.941 580.62 211.98 581.806 211.434C583.033 215.065 584.075 218.856 585.001 222.771Z" fill="#977E8B"/>
<path d="M496.606 182.717C496.604 184.17 496.101 185.573 495.192 186.661C494.283 187.75 493.029 188.449 491.668 188.627C490.306 188.805 488.93 188.451 487.798 187.63C486.666 186.809 485.856 185.579 485.52 184.17C490.278 183.262 494.042 182.572 496.181 181.991L496.544 181.896C496.59 182.167 496.61 182.442 496.606 182.717V182.717Z" fill="#977E8B"/>
<path d="M519.868 182.715C519.876 183.651 519.677 184.575 519.285 185.413C518.894 186.252 518.321 186.981 517.615 187.541C516.908 188.102 516.087 188.479 515.217 188.642C514.348 188.804 513.454 188.747 512.609 188.477C511.764 188.206 510.991 187.728 510.352 187.082C509.714 186.436 509.228 185.64 508.933 184.758C508.639 183.876 508.544 182.933 508.657 182.006C508.77 181.078 509.088 180.192 509.584 179.418C512.148 178.975 514.918 178.525 517.812 178.053C518.462 178.618 518.984 179.33 519.34 180.137C519.696 180.943 519.876 181.825 519.868 182.715V182.715Z" fill="#977E8B"/>
<path d="M537.502 188.679C540.611 188.679 543.131 186.01 543.131 182.717C543.131 179.423 540.611 176.754 537.502 176.754C534.393 176.754 531.873 179.423 531.873 182.717C531.873 186.01 534.393 188.679 537.502 188.679Z" fill="#977E8B"/>
<path d="M560.772 188.679C563.88 188.679 566.4 186.01 566.4 182.717C566.4 179.423 563.88 176.754 560.772 176.754C557.663 176.754 555.143 179.423 555.143 182.717C555.143 186.01 557.663 188.679 560.772 188.679Z" fill="#977E8B"/>
<path d="M432.803 241.152C435.912 241.152 438.432 238.482 438.432 235.189C438.432 231.896 435.912 229.227 432.803 229.227C429.694 229.227 427.174 231.896 427.174 235.189C427.174 238.482 429.694 241.152 432.803 241.152Z" fill="#977E8B"/>
<path d="M415.169 235.189C415.184 236.613 414.717 237.996 413.853 239.086C412.988 240.177 411.783 240.903 410.456 241.133C409.13 241.363 407.769 241.082 406.621 240.341C405.473 239.599 404.614 238.447 404.2 237.092C405.69 234.391 407.173 231.795 408.649 229.307C408.939 229.251 409.233 229.224 409.527 229.227C410.267 229.226 411 229.379 411.684 229.678C412.368 229.978 412.99 230.416 413.514 230.97C414.038 231.524 414.454 232.181 414.738 232.905C415.022 233.629 415.168 234.405 415.169 235.189Z" fill="#977E8B"/>
<path d="M456.073 241.152C459.181 241.152 461.702 238.482 461.702 235.189C461.702 231.896 459.181 229.227 456.073 229.227C452.964 229.227 450.444 231.896 450.444 235.189C450.444 238.482 452.964 241.152 456.073 241.152Z" fill="#977E8B"/>
<path d="M479.342 241.152C482.451 241.152 484.971 238.482 484.971 235.189C484.971 231.896 482.451 229.227 479.342 229.227C476.234 229.227 473.713 231.896 473.713 235.189C473.713 238.482 476.234 241.152 479.342 241.152Z" fill="#977E8B"/>
<path d="M502.605 241.152C505.714 241.152 508.234 238.482 508.234 235.189C508.234 231.896 505.714 229.227 502.605 229.227C499.496 229.227 496.976 231.896 496.976 235.189C496.976 238.482 499.496 241.152 502.605 241.152Z" fill="#977E8B"/>
<path d="M525.874 241.152C528.983 241.152 531.503 238.482 531.503 235.189C531.503 231.896 528.983 229.227 525.874 229.227C522.765 229.227 520.245 231.896 520.245 235.189C520.245 238.482 522.765 241.152 525.874 241.152Z" fill="#977E8B"/>
<path d="M549.137 241.152C552.246 241.152 554.766 238.482 554.766 235.189C554.766 231.896 552.246 229.227 549.137 229.227C546.028 229.227 543.508 231.896 543.508 235.189C543.508 238.482 546.028 241.152 549.137 241.152Z" fill="#977E8B"/>
<path d="M572.406 241.152C575.515 241.152 578.035 238.482 578.035 235.189C578.035 231.896 575.515 229.227 572.406 229.227C569.298 229.227 566.777 231.896 566.777 235.189C566.777 238.482 569.298 241.152 572.406 241.152Z" fill="#977E8B"/>
<path d="M421.175 257.849C424.284 257.849 426.804 255.18 426.804 251.886C426.804 248.593 424.284 245.924 421.175 245.924C418.067 245.924 415.547 248.593 415.547 251.886C415.547 255.18 418.067 257.849 421.175 257.849Z" fill="#977E8B"/>
<path d="M403.535 251.885C403.535 253.027 403.225 254.144 402.643 255.105C402.061 256.066 401.231 256.83 400.251 257.306C399.271 257.782 398.183 257.949 397.116 257.789C396.049 257.629 395.047 257.148 394.231 256.402C395.924 252.916 397.659 249.481 399.38 246.133C400.573 246.474 401.627 247.223 402.378 248.263C403.129 249.303 403.535 250.576 403.535 251.885V251.885Z" fill="#977E8B"/>
<path d="M444.438 257.849C447.547 257.849 450.067 255.18 450.067 251.886C450.067 248.593 447.547 245.924 444.438 245.924C441.329 245.924 438.809 248.593 438.809 251.886C438.809 255.18 441.329 257.849 444.438 257.849Z" fill="#977E8B"/>
<path d="M467.707 257.849C470.816 257.849 473.336 255.18 473.336 251.886C473.336 248.593 470.816 245.924 467.707 245.924C464.599 245.924 462.079 248.593 462.079 251.886C462.079 255.18 464.599 257.849 467.707 257.849Z" fill="#977E8B"/>
<path d="M490.97 257.849C494.079 257.849 496.599 255.18 496.599 251.886C496.599 248.593 494.079 245.924 490.97 245.924C487.861 245.924 485.341 248.593 485.341 251.886C485.341 255.18 487.861 257.849 490.97 257.849Z" fill="#977E8B"/>
<path d="M514.24 257.849C517.348 257.849 519.868 255.18 519.868 251.886C519.868 248.593 517.348 245.924 514.24 245.924C511.131 245.924 508.611 248.593 508.611 251.886C508.611 255.18 511.131 257.849 514.24 257.849Z" fill="#977E8B"/>
<path d="M537.502 257.849C540.611 257.849 543.131 255.18 543.131 251.886C543.131 248.593 540.611 245.924 537.502 245.924C534.393 245.924 531.873 248.593 531.873 251.886C531.873 255.18 534.393 257.849 537.502 257.849Z" fill="#977E8B"/>
<path d="M560.772 257.849C563.88 257.849 566.4 255.18 566.4 251.886C566.4 248.593 563.88 245.924 560.772 245.924C557.663 245.924 555.143 248.593 555.143 251.886C555.143 255.18 557.663 257.849 560.772 257.849Z" fill="#977E8B"/>
<path d="M588.724 255.191C588.058 256.247 587.091 257.051 585.964 257.485C584.837 257.918 583.609 257.96 582.458 257.602C581.308 257.245 580.295 256.508 579.567 255.498C578.84 254.488 578.436 253.259 578.414 251.989C578.392 250.719 578.754 249.475 579.446 248.438C580.139 247.401 581.126 246.625 582.263 246.223C583.401 245.822 584.63 245.816 585.771 246.206C586.912 246.596 587.906 247.362 588.607 248.393V248.393C588.703 250.654 588.742 252.92 588.724 255.191Z" fill="#977E8B"/>
<path d="M432.803 275.343C435.912 275.343 438.432 272.674 438.432 269.381C438.432 266.088 435.912 263.418 432.803 263.418C429.694 263.418 427.174 266.088 427.174 269.381C427.174 272.674 429.694 275.343 432.803 275.343Z" fill="#977E8B"/>
<path d="M456.073 275.343C459.181 275.343 461.702 272.674 461.702 269.381C461.702 266.088 459.181 263.418 456.073 263.418C452.964 263.418 450.444 266.088 450.444 269.381C450.444 272.674 452.964 275.343 456.073 275.343Z" fill="#977E8B"/>
<path d="M479.342 275.343C482.451 275.343 484.971 272.674 484.971 269.381C484.971 266.088 482.451 263.418 479.342 263.418C476.234 263.418 473.713 266.088 473.713 269.381C473.713 272.674 476.234 275.343 479.342 275.343Z" fill="#977E8B"/>
<path d="M502.605 275.343C505.714 275.343 508.234 272.674 508.234 269.381C508.234 266.088 505.714 263.418 502.605 263.418C499.496 263.418 496.976 266.088 496.976 269.381C496.976 272.674 499.496 275.343 502.605 275.343Z" fill="#977E8B"/>
<path d="M525.874 275.343C528.983 275.343 531.503 272.674 531.503 269.381C531.503 266.088 528.983 263.418 525.874 263.418C522.765 263.418 520.245 266.088 520.245 269.381C520.245 272.674 522.765 275.343 525.874 275.343Z" fill="#977E8B"/>
<path d="M549.137 275.343C552.246 275.343 554.766 272.674 554.766 269.381C554.766 266.088 552.246 263.418 549.137 263.418C546.028 263.418 543.508 266.088 543.508 269.381C543.508 272.674 546.028 275.343 549.137 275.343Z" fill="#977E8B"/>
<path d="M572.406 275.343C575.515 275.343 578.035 272.674 578.035 269.381C578.035 266.088 575.515 263.418 572.406 263.418C569.298 263.418 566.777 266.088 566.777 269.381C566.777 272.674 569.298 275.343 572.406 275.343Z" fill="#977E8B"/>
<path d="M421.175 292.035C424.284 292.035 426.804 289.365 426.804 286.072C426.804 282.779 424.284 280.109 421.175 280.109C418.067 280.109 415.547 282.779 415.547 286.072C415.547 289.365 418.067 292.035 421.175 292.035Z" fill="#977E8B"/>
<path d="M444.438 292.035C447.547 292.035 450.067 289.365 450.067 286.072C450.067 282.779 447.547 280.109 444.438 280.109C441.329 280.109 438.809 282.779 438.809 286.072C438.809 289.365 441.329 292.035 444.438 292.035Z" fill="#977E8B"/>
<path d="M467.707 292.035C470.816 292.035 473.336 289.365 473.336 286.072C473.336 282.779 470.816 280.109 467.707 280.109C464.599 280.109 462.079 282.779 462.079 286.072C462.079 289.365 464.599 292.035 467.707 292.035Z" fill="#977E8B"/>
<path d="M490.97 292.035C494.079 292.035 496.599 289.365 496.599 286.072C496.599 282.779 494.079 280.109 490.97 280.109C487.861 280.109 485.341 282.779 485.341 286.072C485.341 289.365 487.861 292.035 490.97 292.035Z" fill="#977E8B"/>
<path d="M514.24 292.035C517.348 292.035 519.868 289.365 519.868 286.072C519.868 282.779 517.348 280.109 514.24 280.109C511.131 280.109 508.611 282.779 508.611 286.072C508.611 289.365 511.131 292.035 514.24 292.035Z" fill="#977E8B"/>
<path d="M537.502 292.035C540.611 292.035 543.131 289.365 543.131 286.072C543.131 282.779 540.611 280.109 537.502 280.109C534.393 280.109 531.873 282.779 531.873 286.072C531.873 289.365 534.393 292.035 537.502 292.035Z" fill="#977E8B"/>
<path d="M560.772 292.035C563.88 292.035 566.4 289.365 566.4 286.072C566.4 282.779 563.88 280.109 560.772 280.109C557.663 280.109 555.143 282.779 555.143 286.072C555.143 289.365 557.663 292.035 560.772 292.035Z" fill="#977E8B"/>
<path d="M585.776 280.393C584.925 284.068 584.055 287.931 583.163 291.955C581.771 291.711 580.517 290.922 579.647 289.745C578.778 288.568 578.358 287.088 578.47 285.598C578.582 284.108 579.219 282.718 580.253 281.701C581.287 280.685 582.644 280.116 584.055 280.109C584.639 280.11 585.219 280.205 585.776 280.393Z" fill="#977E8B"/>
<path d="M432.803 310.322C435.912 310.322 438.432 307.652 438.432 304.359C438.432 301.066 435.912 298.396 432.803 298.396C429.694 298.396 427.174 301.066 427.174 304.359C427.174 307.652 429.694 310.322 432.803 310.322Z" fill="#977E8B"/>
<path d="M409.541 310.322C412.649 310.322 415.169 307.652 415.169 304.359C415.169 301.066 412.649 298.396 409.541 298.396C406.432 298.396 403.912 301.066 403.912 304.359C403.912 307.652 406.432 310.322 409.541 310.322Z" fill="#977E8B"/>
<path d="M456.073 310.322C459.181 310.322 461.702 307.652 461.702 304.359C461.702 301.066 459.181 298.396 456.073 298.396C452.964 298.396 450.444 301.066 450.444 304.359C450.444 307.652 452.964 310.322 456.073 310.322Z" fill="#977E8B"/>
<path d="M479.342 310.322C482.451 310.322 484.971 307.652 484.971 304.359C484.971 301.066 482.451 298.396 479.342 298.396C476.234 298.396 473.713 301.066 473.713 304.359C473.713 307.652 476.234 310.322 479.342 310.322Z" fill="#977E8B"/>
<path d="M502.605 310.322C505.714 310.322 508.234 307.652 508.234 304.359C508.234 301.066 505.714 298.396 502.605 298.396C499.496 298.396 496.976 301.066 496.976 304.359C496.976 307.652 499.496 310.322 502.605 310.322Z" fill="#977E8B"/>
<path d="M525.874 310.322C528.983 310.322 531.503 307.652 531.503 304.359C531.503 301.066 528.983 298.396 525.874 298.396C522.765 298.396 520.245 301.066 520.245 304.359C520.245 307.652 522.765 310.322 525.874 310.322Z" fill="#977E8B"/>
<path d="M549.137 310.322C552.246 310.322 554.766 307.652 554.766 304.359C554.766 301.066 552.246 298.396 549.137 298.396C546.028 298.396 543.508 301.066 543.508 304.359C543.508 307.652 546.028 310.322 549.137 310.322Z" fill="#977E8B"/>
<path d="M572.406 310.322C575.515 310.322 578.035 307.652 578.035 304.359C578.035 301.066 575.515 298.396 572.406 298.396C569.298 298.396 566.777 301.066 566.777 304.359C566.777 307.652 569.298 310.322 572.406 310.322Z" fill="#977E8B"/>
<path d="M421.175 327.017C424.284 327.017 426.804 324.347 426.804 321.054C426.804 317.761 424.284 315.092 421.175 315.092C418.067 315.092 415.547 317.761 415.547 321.054C415.547 324.347 418.067 327.017 421.175 327.017Z" fill="#977E8B"/>
<path d="M409.541 275.343C412.649 275.343 415.169 272.674 415.169 269.381C415.169 266.088 412.649 263.418 409.541 263.418C406.432 263.418 403.912 266.088 403.912 269.381C403.912 272.674 406.432 275.343 409.541 275.343Z" fill="#977E8B"/>
<path d="M397.906 292.035C401.015 292.035 403.535 289.365 403.535 286.072C403.535 282.779 401.015 280.109 397.906 280.109C394.797 280.109 392.277 282.779 392.277 286.072C392.277 289.365 394.797 292.035 397.906 292.035Z" fill="#977E8B"/>
<path d="M386.271 310.322C389.38 310.322 391.9 307.652 391.9 304.359C391.9 301.066 389.38 298.396 386.271 298.396C383.162 298.396 380.642 301.066 380.642 304.359C380.642 307.652 383.162 310.322 386.271 310.322Z" fill="#977E8B"/>
<path d="M397.906 327.017C401.015 327.017 403.535 324.347 403.535 321.054C403.535 317.761 401.015 315.092 397.906 315.092C394.797 315.092 392.277 317.761 392.277 321.054C392.277 324.347 394.797 327.017 397.906 327.017Z" fill="#977E8B"/>
<path d="M391.907 269.373C391.907 270.955 391.314 272.471 390.258 273.589C389.203 274.708 387.771 275.336 386.278 275.336C385.984 275.339 385.69 275.312 385.4 275.256C386.929 271.864 388.506 268.436 390.104 265.016C390.673 265.57 391.127 266.243 391.438 266.994C391.748 267.744 391.908 268.554 391.907 269.373Z" fill="#977E8B"/>
<path d="M374.643 327.017C377.752 327.017 380.272 324.347 380.272 321.054C380.272 317.761 377.752 315.092 374.643 315.092C371.534 315.092 369.014 317.761 369.014 321.054C369.014 324.347 371.534 327.017 374.643 327.017Z" fill="#977E8B"/>
<path d="M444.438 327.017C447.547 327.017 450.067 324.347 450.067 321.054C450.067 317.761 447.547 315.092 444.438 315.092C441.329 315.092 438.809 317.761 438.809 321.054C438.809 324.347 441.329 327.017 444.438 327.017Z" fill="#977E8B"/>
<path d="M467.707 327.017C470.816 327.017 473.336 324.347 473.336 321.054C473.336 317.761 470.816 315.092 467.707 315.092C464.599 315.092 462.079 317.761 462.079 321.054C462.079 324.347 464.599 327.017 467.707 327.017Z" fill="#977E8B"/>
<path d="M490.97 327.017C494.079 327.017 496.599 324.347 496.599 321.054C496.599 317.761 494.079 315.092 490.97 315.092C487.861 315.092 485.341 317.761 485.341 321.054C485.341 324.347 487.861 327.017 490.97 327.017Z" fill="#977E8B"/>
<path d="M514.24 327.017C517.348 327.017 519.868 324.347 519.868 321.054C519.868 317.761 517.348 315.092 514.24 315.092C511.131 315.092 508.611 317.761 508.611 321.054C508.611 324.347 511.131 327.017 514.24 327.017Z" fill="#977E8B"/>
<path d="M537.502 327.017C540.611 327.017 543.131 324.347 543.131 321.054C543.131 317.761 540.611 315.092 537.502 315.092C534.393 315.092 531.873 317.761 531.873 321.054C531.873 324.347 534.393 327.017 537.502 327.017Z" fill="#977E8B"/>
<path d="M560.772 327.017C563.88 327.017 566.4 324.347 566.4 321.054C566.4 317.761 563.88 315.092 560.772 315.092C557.663 315.092 555.143 317.761 555.143 321.054C555.143 324.347 557.663 327.017 560.772 327.017Z" fill="#977E8B"/>
<path d="M432.803 344.505C435.912 344.505 438.432 341.836 438.432 338.543C438.432 335.25 435.912 332.58 432.803 332.58C429.694 332.58 427.174 335.25 427.174 338.543C427.174 341.836 429.694 344.505 432.803 344.505Z" fill="#977E8B"/>
<path d="M456.073 344.505C459.181 344.505 461.702 341.836 461.702 338.543C461.702 335.25 459.181 332.58 456.073 332.58C452.964 332.58 450.444 335.25 450.444 338.543C450.444 341.836 452.964 344.505 456.073 344.505Z" fill="#977E8B"/>
<path d="M479.342 344.505C482.451 344.505 484.971 341.836 484.971 338.543C484.971 335.25 482.451 332.58 479.342 332.58C476.234 332.58 473.713 335.25 473.713 338.543C473.713 341.836 476.234 344.505 479.342 344.505Z" fill="#977E8B"/>
<path d="M502.605 344.505C505.714 344.505 508.234 341.836 508.234 338.543C508.234 335.25 505.714 332.58 502.605 332.58C499.496 332.58 496.976 335.25 496.976 338.543C496.976 341.836 499.496 344.505 502.605 344.505Z" fill="#977E8B"/>
<path d="M525.874 344.505C528.983 344.505 531.503 341.836 531.503 338.543C531.503 335.25 528.983 332.58 525.874 332.58C522.765 332.58 520.245 335.25 520.245 338.543C520.245 341.836 522.765 344.505 525.874 344.505Z" fill="#977E8B"/>
<path d="M549.137 344.505C552.246 344.505 554.766 341.836 554.766 338.543C554.766 335.25 552.246 332.58 549.137 332.58C546.028 332.58 543.508 335.25 543.508 338.543C543.508 341.836 546.028 344.505 549.137 344.505Z" fill="#977E8B"/>
<path d="M574.538 333.025C573.775 336.845 573.016 340.67 572.262 344.5C571.436 344.479 570.625 344.266 569.886 343.875C569.146 343.485 568.497 342.927 567.984 342.241C567.471 341.555 567.107 340.758 566.918 339.906C566.728 339.055 566.718 338.169 566.888 337.313C567.058 336.456 567.404 335.65 567.901 334.951C568.398 334.252 569.034 333.678 569.764 333.268C570.494 332.859 571.301 332.625 572.126 332.583C572.951 332.541 573.775 332.692 574.538 333.025V333.025Z" fill="#977E8B"/>
<path d="M421.175 349.277C422.615 349.272 424.001 349.858 425.042 350.911V350.911C422.835 354.179 420.627 357.353 418.419 360.432C417.334 359.787 416.482 358.78 415.994 357.568C415.507 356.355 415.413 355.006 415.726 353.73C416.039 352.455 416.743 351.326 417.726 350.519C418.71 349.712 419.918 349.272 421.162 349.27L421.175 349.277Z" fill="#977E8B"/>
<path d="M444.438 361.203C447.547 361.203 450.067 358.533 450.067 355.24C450.067 351.947 447.547 349.277 444.438 349.277C441.329 349.277 438.809 351.947 438.809 355.24C438.809 358.533 441.329 361.203 444.438 361.203Z" fill="#977E8B"/>
<path d="M467.707 361.203C470.816 361.203 473.336 358.533 473.336 355.24C473.336 351.947 470.816 349.277 467.707 349.277C464.599 349.277 462.079 351.947 462.079 355.24C462.079 358.533 464.599 361.203 467.707 361.203Z" fill="#977E8B"/>
<path d="M490.97 361.203C494.079 361.203 496.599 358.533 496.599 355.24C496.599 351.947 494.079 349.277 490.97 349.277C487.861 349.277 485.341 351.947 485.341 355.24C485.341 358.533 487.861 361.203 490.97 361.203Z" fill="#977E8B"/>
<path d="M514.24 361.203C517.348 361.203 519.868 358.533 519.868 355.24C519.868 351.947 517.348 349.277 514.24 349.277C511.131 349.277 508.611 351.947 508.611 355.24C508.611 358.533 511.131 361.203 514.24 361.203Z" fill="#977E8B"/>
<path d="M537.502 361.203C540.611 361.203 543.131 358.533 543.131 355.24C543.131 351.947 540.611 349.277 537.502 349.277C534.393 349.277 531.873 351.947 531.873 355.24C531.873 358.533 534.393 361.203 537.502 361.203Z" fill="#977E8B"/>
<path d="M560.772 361.203C563.88 361.203 566.4 358.533 566.4 355.24C566.4 351.947 563.88 349.277 560.772 349.277C557.663 349.277 555.143 351.947 555.143 355.24C555.143 358.533 557.663 361.203 560.772 361.203Z" fill="#977E8B"/>
<path d="M434.305 379.49C437.413 379.49 439.933 376.82 439.933 373.527C439.933 370.234 437.413 367.564 434.305 367.564C431.196 367.564 428.676 370.234 428.676 373.527C428.676 376.82 431.196 379.49 434.305 379.49Z" fill="#977E8B"/>
<path d="M412.482 368.451C410.055 371.617 407.641 374.617 405.269 377.413C404.565 376.545 404.112 375.481 403.963 374.347C403.815 373.214 403.977 372.06 404.431 371.021C404.885 369.983 405.611 369.105 406.523 368.492C407.435 367.879 408.495 367.557 409.575 367.565C410.603 367.565 411.61 367.872 412.482 368.451Z" fill="#977E8B"/>
<path d="M456.073 379.49C459.181 379.49 461.702 376.82 461.702 373.527C461.702 370.234 459.181 367.564 456.073 367.564C452.964 367.564 450.444 370.234 450.444 373.527C450.444 376.82 452.964 379.49 456.073 379.49Z" fill="#977E8B"/>
<path d="M479.342 379.49C482.451 379.49 484.971 376.82 484.971 373.527C484.971 370.234 482.451 367.564 479.342 367.564C476.234 367.564 473.713 370.234 473.713 373.527C473.713 376.82 476.234 379.49 479.342 379.49Z" fill="#977E8B"/>
<path d="M502.605 379.49C505.714 379.49 508.234 376.82 508.234 373.527C508.234 370.234 505.714 367.564 502.605 367.564C499.496 367.564 496.976 370.234 496.976 373.527C496.976 376.82 499.496 379.49 502.605 379.49Z" fill="#977E8B"/>
<path d="M525.874 379.49C528.983 379.49 531.503 376.82 531.503 373.527C531.503 370.234 528.983 367.564 525.874 367.564C522.765 367.564 520.245 370.234 520.245 373.527C520.245 376.82 522.765 379.49 525.874 379.49Z" fill="#977E8B"/>
<path d="M549.137 379.49C552.246 379.49 554.766 376.82 554.766 373.527C554.766 370.234 552.246 367.564 549.137 367.564C546.028 367.564 543.508 370.234 543.508 373.527C543.508 376.82 546.028 379.49 549.137 379.49Z" fill="#977E8B"/>
<path d="M409.541 344.505C412.649 344.505 415.169 341.836 415.169 338.543C415.169 335.25 412.649 332.58 409.541 332.58C406.432 332.58 403.912 335.25 403.912 338.543C403.912 341.836 406.432 344.505 409.541 344.505Z" fill="#977E8B"/>
<path d="M397.906 361.203C401.015 361.203 403.535 358.533 403.535 355.24C403.535 351.947 401.015 349.277 397.906 349.277C394.797 349.277 392.277 351.947 392.277 355.24C392.277 358.533 394.797 361.203 397.906 361.203Z" fill="#977E8B"/>
<path d="M386.271 379.49C389.38 379.49 391.9 376.82 391.9 373.527C391.9 370.234 389.38 367.564 386.271 367.564C383.162 367.564 380.642 370.234 380.642 373.527C380.642 376.82 383.162 379.49 386.271 379.49Z" fill="#977E8B"/>
<path d="M374.643 396.187C377.752 396.187 380.272 393.517 380.272 390.224C380.272 386.931 377.752 384.262 374.643 384.262C371.534 384.262 369.014 386.931 369.014 390.224C369.014 393.517 371.534 396.187 374.643 396.187Z" fill="#977E8B"/>
<path d="M386.271 344.505C389.38 344.505 391.9 341.836 391.9 338.543C391.9 335.25 389.38 332.58 386.271 332.58C383.162 332.58 380.642 335.25 380.642 338.543C380.642 341.836 383.162 344.505 386.271 344.505Z" fill="#977E8B"/>
<path d="M374.643 361.203C377.752 361.203 380.272 358.533 380.272 355.24C380.272 351.947 377.752 349.277 374.643 349.277C371.534 349.277 369.014 351.947 369.014 355.24C369.014 358.533 371.534 361.203 374.643 361.203Z" fill="#977E8B"/>
<path d="M363.009 379.49C366.117 379.49 368.638 376.82 368.638 373.527C368.638 370.234 366.117 367.564 363.009 367.564C359.9 367.564 357.38 370.234 357.38 373.527C357.38 376.82 359.9 379.49 363.009 379.49Z" fill="#977E8B"/>
<path d="M351.374 396.187C354.483 396.187 357.003 393.517 357.003 390.224C357.003 386.931 354.483 384.262 351.374 384.262C348.265 384.262 345.745 386.931 345.745 390.224C345.745 393.517 348.265 396.187 351.374 396.187Z" fill="#977E8B"/>
<path d="M363.009 344.505C366.117 344.505 368.638 341.836 368.638 338.543C368.638 335.25 366.117 332.58 363.009 332.58C359.9 332.58 357.38 335.25 357.38 338.543C357.38 341.836 359.9 344.505 363.009 344.505Z" fill="#977E8B"/>
<path d="M351.374 361.203C354.483 361.203 357.003 358.533 357.003 355.24C357.003 351.947 354.483 349.277 351.374 349.277C348.265 349.277 345.745 351.947 345.745 355.24C345.745 358.533 348.265 361.203 351.374 361.203Z" fill="#977E8B"/>
<path d="M339.739 379.49C342.848 379.49 345.368 376.82 345.368 373.527C345.368 370.234 342.848 367.564 339.739 367.564C336.63 367.564 334.11 370.234 334.11 373.527C334.11 376.82 336.63 379.49 339.739 379.49Z" fill="#977E8B"/>
<path d="M333.74 390.187C333.742 391.176 333.511 392.149 333.068 393.019C332.625 393.889 331.984 394.628 331.203 395.169C328.619 394.654 326.02 394.095 323.435 393.514C322.94 392.741 322.622 391.856 322.509 390.929C322.395 390.003 322.489 389.061 322.782 388.18C323.075 387.299 323.559 386.504 324.196 385.857C324.832 385.211 325.604 384.732 326.447 384.459C327.29 384.186 328.183 384.127 329.051 384.287C329.92 384.446 330.742 384.82 331.449 385.377C332.157 385.934 332.731 386.66 333.125 387.496C333.52 388.331 333.723 389.253 333.72 390.187H333.74Z" fill="#977E8B"/>
<path d="M345.375 338.543C345.375 340.124 344.782 341.641 343.726 342.759C342.671 343.877 341.239 344.506 339.746 344.506C338.253 344.506 336.821 343.877 335.766 342.759C334.71 341.641 334.117 340.124 334.117 338.543C334.115 337.854 334.229 337.171 334.453 336.524L344.442 335.318C345.043 336.274 345.367 337.395 345.375 338.543Z" fill="#977E8B"/>
<path d="M328.104 361.203C331.213 361.203 333.733 358.533 333.733 355.24C333.733 351.947 331.213 349.277 328.104 349.277C324.996 349.277 322.476 351.947 322.476 355.24C322.476 358.533 324.996 361.203 328.104 361.203Z" fill="#977E8B"/>
<path d="M316.476 379.49C319.585 379.49 322.105 376.82 322.105 373.527C322.105 370.234 319.585 367.564 316.476 367.564C313.368 367.564 310.848 370.234 310.848 373.527C310.848 376.82 313.368 379.49 316.476 379.49Z" fill="#977E8B"/>
<path d="M310.471 390.188C310.474 390.258 310.474 390.328 310.471 390.398C306.878 389.483 303.313 388.524 299.816 387.537C300.381 386.335 301.312 385.371 302.459 384.801C303.606 384.231 304.901 384.087 306.134 384.394C307.368 384.701 308.467 385.44 309.254 386.492C310.041 387.543 310.47 388.846 310.471 390.188V390.188Z" fill="#977E8B"/>
<path d="M322.105 338.543C322.094 340.053 321.542 341.502 320.561 342.597C319.58 343.693 318.243 344.353 316.82 344.445C315.398 344.538 313.995 344.055 312.895 343.094C311.796 342.133 311.081 340.766 310.896 339.269L322.078 337.977C322.098 338.165 322.107 338.354 322.105 338.543V338.543Z" fill="#977E8B"/>
<path d="M304.842 361.203C307.95 361.203 310.471 358.533 310.471 355.24C310.471 351.947 307.95 349.277 304.842 349.277C301.733 349.277 299.213 351.947 299.213 355.24C299.213 358.533 301.733 361.203 304.842 361.203Z" fill="#977E8B"/>
<path d="M293.207 379.49C296.316 379.49 298.836 376.82 298.836 373.527C298.836 370.234 296.316 367.564 293.207 367.564C290.098 367.564 287.578 370.234 287.578 373.527C287.578 376.82 290.098 379.49 293.207 379.49Z" fill="#977E8B"/>
<path d="M298.466 340.67C298.094 341.702 297.459 342.603 296.632 343.275C295.805 343.947 294.817 344.361 293.78 344.473C292.743 344.584 291.698 344.388 290.76 343.906C289.822 343.425 289.029 342.676 288.469 341.745C291.76 341.396 295.079 341.04 298.466 340.67Z" fill="#977E8B"/>
<path d="M281.572 361.203C284.681 361.203 287.201 358.533 287.201 355.24C287.201 351.947 284.681 349.277 281.572 349.277C278.464 349.277 275.944 351.947 275.944 355.24C275.944 358.533 278.464 361.203 281.572 361.203Z" fill="#977E8B"/>
<path d="M275.573 373.527C275.573 374.673 275.261 375.795 274.673 376.757C274.086 377.72 273.249 378.482 272.262 378.952C269.725 378.073 267.291 377.202 264.981 376.352C264.577 375.553 264.351 374.668 264.32 373.763C264.288 372.857 264.451 371.956 264.797 371.128C265.143 370.3 265.663 369.566 266.316 368.982C266.97 368.398 267.741 367.98 268.57 367.759C269.399 367.537 270.265 367.519 271.102 367.706C271.939 367.892 272.725 368.278 273.4 368.834C274.075 369.39 274.621 370.101 274.998 370.915C275.375 371.728 275.571 372.621 275.573 373.527Z" fill="#977E8B"/>
<path d="M258.31 361.203C261.418 361.203 263.939 358.533 263.939 355.24C263.939 351.947 261.418 349.277 258.31 349.277C255.201 349.277 252.681 351.947 252.681 355.24C252.681 358.533 255.201 361.203 258.31 361.203Z" fill="#977E8B"/>
<path d="M444.438 396.187C447.547 396.187 450.067 393.517 450.067 390.224C450.067 386.931 447.547 384.262 444.438 384.262C441.329 384.262 438.809 386.931 438.809 390.224C438.809 393.517 441.329 396.187 444.438 396.187Z" fill="#977E8B"/>
<path d="M467.707 396.187C470.816 396.187 473.336 393.517 473.336 390.224C473.336 386.931 470.816 384.262 467.707 384.262C464.599 384.262 462.079 386.931 462.079 390.224C462.079 393.517 464.599 396.187 467.707 396.187Z" fill="#977E8B"/>
<path d="M490.97 396.187C494.079 396.187 496.599 393.517 496.599 390.224C496.599 386.931 494.079 384.262 490.97 384.262C487.861 384.262 485.341 386.931 485.341 390.224C485.341 393.517 487.861 396.187 490.97 396.187Z" fill="#977E8B"/>
<path d="M514.24 396.187C517.348 396.187 519.868 393.517 519.868 390.224C519.868 386.931 517.348 384.262 514.24 384.262C511.131 384.262 508.611 386.931 508.611 390.224C508.611 393.517 511.131 396.187 514.24 396.187Z" fill="#977E8B"/>
<path d="M537.502 396.187C540.611 396.187 543.131 393.517 543.131 390.224C543.131 386.931 540.611 384.262 537.502 384.262C534.393 384.262 531.873 386.931 531.873 390.224C531.873 393.517 534.393 396.187 537.502 396.187Z" fill="#977E8B"/>
<path d="M564.453 385.713C563.823 389.199 563.212 392.584 562.636 395.837C562.039 396.068 561.408 396.186 560.772 396.186C559.861 396.189 558.962 395.958 558.154 395.513C557.345 395.068 556.651 394.422 556.13 393.63C555.609 392.838 555.277 391.925 555.162 390.967C555.048 390.01 555.154 389.037 555.472 388.133C555.79 387.228 556.31 386.419 556.988 385.774C557.666 385.129 558.481 384.668 559.364 384.43C560.247 384.192 561.171 384.185 562.058 384.408C562.944 384.632 563.766 385.079 564.453 385.713Z" fill="#977E8B"/>
<path d="M438.439 407.713C438.44 409.16 437.943 410.558 437.04 411.645C436.138 412.732 434.892 413.433 433.537 413.617C432.981 409.855 432.412 405.904 431.843 401.844C432.162 401.78 432.486 401.748 432.81 401.75C434.302 401.752 435.733 402.381 436.788 403.499C437.843 404.616 438.437 406.132 438.439 407.713V407.713Z" fill="#977E8B"/>
<path d="M456.073 413.675C459.181 413.675 461.702 411.006 461.702 407.713C461.702 404.42 459.181 401.75 456.073 401.75C452.964 401.75 450.444 404.42 450.444 407.713C450.444 411.006 452.964 413.675 456.073 413.675Z" fill="#977E8B"/>
<path d="M479.342 413.675C482.451 413.675 484.971 411.006 484.971 407.713C484.971 404.42 482.451 401.75 479.342 401.75C476.234 401.75 473.713 404.42 473.713 407.713C473.713 411.006 476.234 413.675 479.342 413.675Z" fill="#977E8B"/>
<path d="M502.605 413.675C505.714 413.675 508.234 411.006 508.234 407.713C508.234 404.42 505.714 401.75 502.605 401.75C499.496 401.75 496.976 404.42 496.976 407.713C496.976 411.006 499.496 413.675 502.605 413.675Z" fill="#977E8B"/>
<path d="M525.874 413.675C528.983 413.675 531.503 411.006 531.503 407.713C531.503 404.42 528.983 401.75 525.874 401.75C522.765 401.75 520.245 404.42 520.245 407.713C520.245 411.006 522.765 413.675 525.874 413.675Z" fill="#977E8B"/>
<path d="M549.137 413.675C552.246 413.675 554.766 411.006 554.766 407.713C554.766 404.42 552.246 401.75 549.137 401.75C546.028 401.75 543.508 404.42 543.508 407.713C543.508 411.006 546.028 413.675 549.137 413.675Z" fill="#977E8B"/>
<path d="M444.438 430.371C447.547 430.371 450.067 427.701 450.067 424.408C450.067 421.115 447.547 418.445 444.438 418.445C441.329 418.445 438.809 421.115 438.809 424.408C438.809 427.701 441.329 430.371 444.438 430.371Z" fill="#977E8B"/>
<path d="M467.707 430.371C470.816 430.371 473.336 427.701 473.336 424.408C473.336 421.115 470.816 418.445 467.707 418.445C464.599 418.445 462.079 421.115 462.079 424.408C462.079 427.701 464.599 430.371 467.707 430.371Z" fill="#977E8B"/>
<path d="M490.97 430.371C494.079 430.371 496.599 427.701 496.599 424.408C496.599 421.115 494.079 418.445 490.97 418.445C487.861 418.445 485.341 421.115 485.341 424.408C485.341 427.701 487.861 430.371 490.97 430.371Z" fill="#977E8B"/>
<path d="M514.24 430.371C517.348 430.371 519.868 427.701 519.868 424.408C519.868 421.115 517.348 418.445 514.24 418.445C511.131 418.445 508.611 421.115 508.611 424.408C508.611 427.701 511.131 430.371 514.24 430.371Z" fill="#977E8B"/>
<path d="M537.502 430.371C540.611 430.371 543.131 427.701 543.131 424.408C543.131 421.115 540.611 418.445 537.502 418.445C534.393 418.445 531.873 421.115 531.873 424.408C531.873 427.701 534.393 430.371 537.502 430.371Z" fill="#977E8B"/>
<path d="M558.742 418.846C558.111 422.847 557.597 426.29 557.241 429.013C556.48 428.355 555.895 427.498 555.544 426.526C555.193 425.554 555.088 424.502 555.24 423.474C555.392 422.446 555.795 421.477 556.409 420.666C557.024 419.854 557.828 419.226 558.742 418.846Z" fill="#977E8B"/>
<path d="M461.681 442.691C461.682 443.841 461.368 444.966 460.778 445.931C460.188 446.897 459.347 447.66 458.356 448.13C456.361 447.905 454.42 447.629 452.528 447.339C451.787 446.707 451.21 445.886 450.85 444.954C450.489 444.022 450.358 443.008 450.468 442.007C450.578 441.006 450.925 440.051 451.477 439.231C452.03 438.411 452.769 437.753 453.627 437.318C454.485 436.882 455.433 436.684 456.382 436.742C457.332 436.8 458.252 437.112 459.057 437.648C459.862 438.185 460.525 438.929 460.985 439.811C461.445 440.692 461.687 441.683 461.688 442.691H461.681Z" fill="#977E8B"/>
<path d="M479.342 448.66C482.451 448.66 484.971 445.99 484.971 442.697C484.971 439.404 482.451 436.734 479.342 436.734C476.234 436.734 473.713 439.404 473.713 442.697C473.713 445.99 476.234 448.66 479.342 448.66Z" fill="#977E8B"/>
<path d="M502.605 448.66C505.714 448.66 508.234 445.99 508.234 442.697C508.234 439.404 505.714 436.734 502.605 436.734C499.496 436.734 496.976 439.404 496.976 442.697C496.976 445.99 499.496 448.66 502.605 448.66Z" fill="#977E8B"/>
<path d="M531.503 442.69C531.503 443.935 531.136 445.148 530.454 446.162C527.876 446.597 525.175 447.004 522.371 447.36C521.627 446.731 521.045 445.913 520.681 444.981C520.317 444.049 520.181 443.035 520.288 442.033C520.394 441.031 520.738 440.073 521.289 439.251C521.84 438.428 522.578 437.767 523.436 437.328C524.293 436.89 525.241 436.69 526.192 436.745C527.143 436.801 528.064 437.111 528.871 437.647C529.677 438.183 530.343 438.926 530.804 439.808C531.266 440.69 531.509 441.682 531.51 442.69H531.503Z" fill="#977E8B"/>
<path d="M553.662 439.146C551.399 440.649 547.923 442.051 543.542 443.3C543.532 443.097 543.532 442.893 543.542 442.69C543.54 441.435 543.913 440.212 544.606 439.194C545.299 438.177 546.279 437.417 547.404 437.024C548.529 436.631 549.742 436.625 550.871 437.006C552 437.387 552.986 438.136 553.689 439.146H553.662Z" fill="#977E8B"/>
<path d="M426.441 353.055C446.495 324.825 458.459 297.227 470.1 272.854" stroke="#FE519E" stroke-width="4" stroke-miterlimit="10"/>
<path d="M201.59 343.104C208.254 341.587 231.694 341.717 243.693 345.167L241.423 366.229C241.423 366.229 230.138 372.082 222.686 368.836C215.233 365.589 209.611 359.198 204.305 360.949C198.998 362.699 192.471 367.129 189.283 366.323C185.484 365.424 181.86 363.834 178.574 361.624C179.842 359.155 193.376 345.799 201.59 343.104Z" fill="#FFCFC9"/>
<path d="M486.877 134.682C488.735 142.57 496.181 176.755 496.181 182.013C496.181 187.271 547.402 181.185 557.33 171.983C557.33 171.983 537.139 148.147 532.175 112.328L486.877 134.682Z" fill="#FFCFC9"/>
<path d="M525.888 115.997C525.888 115.997 510.263 150.523 477.799 147.77C476.715 147.681 475.668 147.307 474.752 146.684C473.837 146.06 473.082 145.206 472.555 144.197C468.098 135.627 456.278 111.515 456.71 97.2009C457.245 79.6181 464.307 47.0162 464.307 47.0162C464.307 47.0162 503.839 38.3446 525.785 77.1706C538.078 98.9584 525.888 115.997 525.888 115.997Z" fill="#FFCFC9"/>
<path d="M497.353 84.8105H439.934" stroke="#FE519E" stroke-width="4" stroke-miterlimit="10"/>
<path d="M446.015 107.782C449.124 107.782 451.644 100.381 451.644 91.2524C451.644 82.1233 449.124 74.7227 446.015 74.7227C442.906 74.7227 440.386 82.1233 440.386 91.2524C440.386 100.381 442.906 107.782 446.015 107.782Z" stroke="#FE519E" stroke-width="4" stroke-miterlimit="10"/>
<path d="M600.811 149.425C600.811 149.425 555.252 163.376 493.904 167.625C493.904 167.625 472.548 144.196 497.154 115.283C511.223 98.7537 493.98 77.8011 493.98 77.8011C474.269 71.2647 450.848 70.5384 450.848 70.5384C443.026 58.359 442.813 41.0667 464.56 23.9923C487.089 6.32965 531.236 -11.3113 557.289 16.6571C572.214 32.6348 562.088 64.663 581.189 74.3804C641.31 104.891 600.811 149.425 600.811 149.425Z" fill="#977E8B"/>
<path d="M471.355 23.963C493.904 6.30035 538.03 -11.3405 564.083 16.6278C579.009 32.6055 570.377 70.1969 589.45 79.9142" stroke="#977E8B" stroke-width="3" stroke-miterlimit="10"/>
<path d="M445.603 70.5103C437.781 58.3309 441.058 37.4582 465.356 24.7559" stroke="#977E8B" stroke-width="3" stroke-miterlimit="10"/>
<path d="M483.62 167.522C483.62 167.522 465.26 142.655 491.614 115.522C506.698 100.009 493.774 74.7207 493.774 74.7207" stroke="#977E8B" stroke-width="3" stroke-miterlimit="10"/>
<path d="M680.479 322.748C676.838 337.274 628.099 430.961 623.265 563.25C622.604 581.638 615.246 599.04 602.734 611.805C590.222 624.57 573.529 631.705 556.158 631.715H336.264C328.784 631.715 323.697 634.896 320.495 640.059C320.214 640.489 319.812 640.813 319.345 640.983C318.879 641.154 318.374 641.163 317.903 641.008C317.431 640.853 317.019 640.543 316.726 640.123C316.432 639.703 316.273 639.195 316.271 638.672V626.623C316.271 610.646 328.537 594.755 343.648 594.799L410.782 594.857C440.839 594.951 458.631 572.677 459.769 540.859C463.965 423.35 499.644 348.974 515.81 324.891C518.683 320.62 522.478 317.14 526.879 314.739C531.28 312.339 536.159 311.088 541.109 311.092H674.905C680.554 311.099 681.932 316.945 680.479 322.748Z" fill="#977E8B" stroke="#FE519E" stroke-width="6" stroke-miterlimit="10" stroke-linecap="round"/>
<path d="M678.6 321.875H547.8C543.101 321.868 538.468 323.05 534.288 325.324C530.108 327.598 526.501 330.898 523.769 334.948C508.357 357.912 475.496 451.346 471.471 557.111C470.972 569.956 465.802 582.099 457.044 590.998C448.285 599.897 436.616 604.863 424.48 604.856H341.302C334.662 604.856 328.293 607.65 323.597 612.624C318.902 617.598 316.264 624.344 316.264 631.379" stroke="#FE519E" stroke-width="6" stroke-miterlimit="10" stroke-linecap="round"/>
<path d="M477.347 679.363H453.351V913.307H477.347V679.363Z" fill="#F0E1D4" stroke="#FE519E" stroke-width="6" stroke-miterlimit="10" stroke-linecap="round"/>
<path d="M413.983 938.414C413.983 924.709 423.65 913.598 435.573 913.598H495.221C507.143 913.598 516.817 924.709 516.817 938.414" stroke="#FE519E" stroke-width="6" stroke-miterlimit="10" stroke-linecap="round"/>
<path d="M515.453 967.495C524.745 967.495 532.278 959.515 532.278 949.672C532.278 939.829 524.745 931.85 515.453 931.85C506.161 931.85 498.628 939.829 498.628 949.672C498.628 959.515 506.161 967.495 515.453 967.495Z" fill="#977E8B" stroke="#FE519E" stroke-width="6" stroke-miterlimit="10" stroke-linecap="round"/>
<path d="M416.04 967.495C425.332 967.495 432.865 959.515 432.865 949.672C432.865 939.829 425.332 931.85 416.04 931.85C406.748 931.85 399.215 939.829 399.215 949.672C399.215 959.515 406.748 967.495 416.04 967.495Z" fill="#977E8B" stroke="#FE519E" stroke-width="6" stroke-miterlimit="10" stroke-linecap="round"/>
<path d="M439.056 632.135H491.621V667.053C491.621 669.685 491.132 672.29 490.181 674.721C489.231 677.153 487.837 679.361 486.081 681.222C484.324 683.083 482.239 684.559 479.944 685.566C477.649 686.573 475.19 687.091 472.705 687.091H457.985C455.5 687.093 453.038 686.576 450.741 685.569C448.444 684.563 446.357 683.086 444.599 681.225C442.841 679.363 441.446 677.153 440.495 674.72C439.544 672.287 439.055 669.679 439.056 667.046V632.135Z" fill="#977E8B" stroke="#FE519E" stroke-width="6" stroke-miterlimit="10" stroke-linecap="round"/>
<path d="M368 938.283C368 931.734 370.456 925.453 374.827 920.822C379.199 916.191 385.128 913.59 391.31 913.59H546.943C553.125 913.59 559.054 916.191 563.426 920.822C567.798 925.453 570.253 931.734 570.253 938.283" stroke="#FE519E" stroke-width="6" stroke-miterlimit="10" stroke-linecap="round"/>
<path d="M363.249 967.495C372.541 967.495 380.073 959.515 380.073 949.672C380.073 939.829 372.541 931.85 363.249 931.85C353.957 931.85 346.424 939.829 346.424 949.672C346.424 959.515 353.957 967.495 363.249 967.495Z" fill="#977E8B" stroke="#FE519E" stroke-width="6" stroke-miterlimit="10" stroke-linecap="round"/>
<path d="M573.044 967.495C582.336 967.495 589.869 959.515 589.869 949.672C589.869 939.829 582.336 931.85 573.044 931.85C563.752 931.85 556.219 939.829 556.219 949.672C556.219 959.515 563.752 967.495 573.044 967.495Z" fill="#977E8B" stroke="#FE519E" stroke-width="6" stroke-miterlimit="10" stroke-linecap="round"/>
</svg>

