<svg width="1048" height="1249" viewBox="0 0 1048 1249" fill="none" xmlns="http://www.w3.org/2000/svg">
<path d="M552.95 779.521V1245.18" stroke="#FE519E" stroke-width="6" stroke-miterlimit="10"/>
<path d="M758.69 779.521V1245.18" stroke="#FE519E" stroke-width="6" stroke-miterlimit="10"/>
<path d="M550.96 1170.32H756.17" stroke="#FE519E" stroke-width="6" stroke-miterlimit="10"/>
<path d="M791.38 717.111H518.27C509.097 717.111 501.66 724.548 501.66 733.721V762.911C501.66 772.085 509.097 779.521 518.27 779.521H791.38C800.554 779.521 807.99 772.085 807.99 762.911V733.721C807.99 724.548 800.554 717.111 791.38 717.111Z" fill="white" stroke="#6562CF" stroke-width="6" stroke-miterlimit="10"/>
<path d="M753.67 267.52C770.6 262.77 794.01 210.2 768.36 181.73C742.71 153.26 688.36 152.4 642.22 159.31C599.57 165.7 543.55 190.44 564.9 243.8C595.26 319.67 753.67 267.52 753.67 267.52Z" fill="#FE519E"/>
<path d="M728.15 231.72C744.15 228.34 771.64 201.72 747.48 181.46C723.32 161.2 686.11 159.23 646.48 166C606.85 172.77 565.78 186.78 584.63 225.19C603.48 263.6 728.15 231.72 728.15 231.72Z" fill="#FE519E"/>
<path d="M822.579 1240.55C812.229 1246.92 748.929 1246.55 736.979 1240.55C725.029 1234.55 727.829 1214.27 725.839 1200.73C723.849 1187.19 695.579 1161.73 693.989 1152.96C692.399 1144.19 723.049 1125.09 728.369 1117.31C723.989 1130.23 767.839 1133.06 771.369 1124.69C769.649 1155.35 792.179 1204.09 810.659 1208.49C822.289 1211.27 832.929 1234.18 822.579 1240.55Z" fill="#3F3D56"/>
<path d="M780.809 1091.16L771.349 1124.69C767.839 1133.06 723.989 1130.23 728.349 1117.31C732.709 1104.39 731.059 1081.94 731.059 1081.94L780.809 1091.16Z" fill="#FCD18B"/>
<path d="M693.999 1153C695.599 1161.76 723.859 1187.24 725.859 1200.78C727.859 1214.32 725.059 1234.62 736.999 1240.59C748.939 1246.56 812.249 1246.96 822.599 1240.59" stroke="#3F3D56" stroke-width="7" stroke-miterlimit="10" stroke-linecap="round"/>
<path d="M773.81 1208.45C773.81 1208.45 794.81 1199.07 815.71 1206.45" stroke="white" stroke-width="6" stroke-miterlimit="10" stroke-linecap="round"/>
<path d="M534.13 1240.55C544.48 1246.92 600.78 1246.55 612.73 1240.55C624.68 1234.55 631.88 1214.27 633.87 1200.73C635.86 1187.19 655.13 1156.73 656.72 1147.96C658.31 1139.19 627.66 1120.09 622.34 1112.31C626.72 1125.23 583.87 1133.06 580.34 1124.69C582.06 1155.35 564.52 1204.09 546.05 1208.49C534.41 1211.27 523.78 1234.18 534.13 1240.55Z" fill="#3F3D56"/>
<path d="M558.9 1089.16L580.36 1124.69C583.87 1133.06 626.72 1125.23 622.36 1112.31C618 1099.39 616.65 1078.94 616.65 1078.94L558.9 1089.16Z" fill="#FCD18B"/>
<path d="M656.72 1148C655.13 1156.76 635.86 1187.24 633.87 1200.78C631.88 1214.32 624.67 1234.62 612.72 1240.59C600.77 1246.56 544.48 1246.96 534.12 1240.59" stroke="#6562CF" stroke-width="7" stroke-miterlimit="10" stroke-linecap="round"/>
<path d="M582.9 1208.45C582.9 1208.45 561.95 1199.07 541 1206.45" stroke="white" stroke-width="6" stroke-miterlimit="10" stroke-linecap="round"/>
<path d="M553.15 582.321C553.15 582.321 344.89 684.321 344.89 747.061C344.89 858.981 531.16 1095.06 563.15 1091.96C595.14 1088.86 626.65 1082.09 625.42 1068.55C624.19 1055.01 557.2 842.711 505.14 779.861C505.14 779.861 524.14 749.951 642.87 751.261C700.09 751.891 749.98 755.781 751.21 757.631C752.44 759.481 689 883.291 721.37 1074.73C724.2 1091.41 793.96 1098.41 800.72 1089.18C807.48 1079.95 915.76 754.871 905.31 729.001C894.86 703.131 786.31 610.481 733.37 582.291C695.24 562.001 553.15 582.321 553.15 582.321Z" fill="#2F2E41"/>
<path d="M493.68 258.872C467.27 273.372 427.8 403.402 427.8 403.402C427.8 403.402 332.7 286.672 328.3 285.572C323.9 284.472 298.35 318.572 298.35 318.572C298.35 318.572 348 540.252 425.45 545.182C457.96 547.252 485.45 528.392 508.02 500.832C518.02 534.182 527.36 561.682 527.36 561.682C531.36 575.682 456.72 614.232 473.75 624.822C473.75 624.822 531.86 605.922 634.4 632.362C757 664.002 816.27 640.002 804.68 630.802C793.09 621.602 774.89 591.692 768.6 571.682L779.91 464.002C779.91 464.002 819.49 564.462 879.32 564.462C950.69 564.462 1015.92 346.272 1015.92 346.272C990.55 345.552 969.53 327.432 969.53 327.432C942.71 346.272 886.89 412.272 886.89 412.272C886.89 412.272 852.1 307.102 835.43 283.182C818.76 259.262 764.43 240.412 728.15 231.722L584.63 225.192C575 223.352 516.15 243.522 493.68 258.872Z" fill="#FE519E"/>
<path d="M886.89 407.871C868.74 428.741 852.34 465.871 852.34 465.871" stroke="#FE519E" stroke-width="6" stroke-miterlimit="10"/>
<path d="M772.879 247.571C703.199 241.681 633.239 285.511 633.239 285.511C633.239 285.511 571.739 271.731 559.439 230.791" stroke="#FE519E" stroke-width="6" stroke-miterlimit="10"/>
<path d="M529.359 561.681C529.359 561.681 490.899 451.201 485.529 404.611" stroke="#FE519E" stroke-width="6" stroke-miterlimit="10" stroke-linecap="round"/>
<path d="M1013.91 266.67C1012.98 272.62 1006.51 281.85 1012.91 281.78C1016.21 281.78 1040.07 277.89 1042.99 286.67C1044.22 290.843 1044 295.311 1042.36 299.34C1047.59 307.15 1043.59 313.53 1043.59 313.53C1046.75 318.39 1047.59 324.68 1045.39 327.45C1045.39 327.45 1050.92 340.2 1045.64 343.16C1029.28 352.36 1003.19 354.27 990.55 351C981.68 348.71 971.04 343.23 968.32 324.35C967.2 316.62 974.9 296.35 980.78 287.99C983.18 284.55 991.97 270.83 994.94 267.07C999.174 261.565 1002.06 255.143 1003.36 248.32C1003.36 248.32 1016.51 250.05 1013.91 266.67Z" fill="#FCD18B"/>
<path d="M1035.3 285.5C1035.88 289.5 1011.51 290.34 1007.3 291.26C1001.3 292.56 1002.08 305.37 1009.86 304.12C1020.45 303.637 1030.96 302.119 1041.25 299.59" stroke="#B65A18" stroke-width="4" stroke-miterlimit="10" stroke-linecap="round"/>
<path d="M1042 313.661C1016.22 318.861 1009.34 318.381 1009.34 318.381C1005.58 319.121 1000.74 305.831 1009.86 304.121" stroke="#B65A18" stroke-width="4" stroke-miterlimit="10" stroke-linecap="round"/>
<path d="M1042.64 327.001C1018.38 332.331 1009.98 331.721 1009.98 331.721C1006.39 332.151 1001.9 319.511 1009.23 318.641" stroke="#B65A18" stroke-width="4" stroke-miterlimit="10" stroke-linecap="round"/>
<path d="M1016.77 331.51C1016.77 331.51 1008.1 330.7 1008.23 336.1C1008.47 345.7 1013.12 346.73 1035.07 342.7" stroke="#B65A18" stroke-width="4" stroke-miterlimit="10" stroke-linecap="round"/>
<path d="M293.59 237.16C293.79 243.16 299.04 253.02 292.75 252.16C289.49 251.72 266.44 245.03 262.5 253.32C260.772 257.283 260.447 261.717 261.58 265.89C255.48 272.95 258.64 279.73 258.64 279.73C254.94 284.14 253.35 290.24 255.18 293.24C255.18 293.24 248.18 305.13 253.02 308.69C268.02 319.75 293.52 324.8 306.38 323.11C315.38 321.93 326.55 317.82 331.53 299.54C333.53 292.06 328.44 271.19 323.67 262.19C321.72 258.5 314.72 243.91 312.24 239.84C308.751 233.895 306.696 227.218 306.24 220.34C306.24 220.34 293.05 220.46 293.59 237.16Z" fill="#FCD18B"/>
<path d="M263.49 309.549C284.64 316.189 289.35 315.729 290.76 306.299C291.2 303.299 288.65 301.929 286.34 301.299C287.408 301.508 288.486 301.658 289.57 301.749C292.79 302.539 298.24 291.569 293.41 288.539C295.41 287.539 297.53 280.369 297.52 273.999C301.25 271.419 301.52 263.769 297.18 262.239C293.09 260.809 269.18 256.999 270.18 253.139L263.49 309.549Z" fill="#FCD18B"/>
<path d="M263.87 266.299C273.335 269.953 283.116 272.724 293.09 274.579C300.6 276.749 302.93 264.219 297.18 262.209C293.09 260.779 273.96 254.549 270.18 253.119" stroke="#B65A18" stroke-width="3" stroke-miterlimit="10" stroke-linecap="round"/>
<path d="M261.43 280.08C286.21 288.33 291.87 288.7 291.87 288.7C295.48 289.88 301.87 277.38 293.09 274.58" stroke="#B65A18" stroke-width="3" stroke-miterlimit="10" stroke-linecap="round"/>
<path d="M258 293.1C281.26 301.31 289.62 301.72 289.62 301.72C293.11 302.59 297.98 289.48 289.42 288.35" stroke="#B65A18" stroke-width="3" stroke-miterlimit="10" stroke-linecap="round"/>
<path d="M282.89 300.729C282.89 300.729 291.54 300.988 290.76 306.298C289.35 315.728 284.65 316.178 263.5 309.548" stroke="#B65A18" stroke-width="3" stroke-miterlimit="10" stroke-linecap="round"/>
<path d="M697.71 138.21C697.71 138.21 682.48 206.35 728.15 231.72C728.15 231.72 686.15 238.97 632.47 283.18C632.47 283.18 591.15 248.39 584.63 225.18C584.63 225.18 626.63 210.69 622.32 138.18L697.71 138.21Z" fill="#FCD18B"/>
<path d="M697.71 138.209H622.32C626.67 210.699 584.63 225.209 584.63 225.209C584.63 225.209 668.46 225.209 692.17 150.469L697.71 138.209Z" fill="#B65A18"/>
<path d="M700.589 137.541C700.589 137.541 678.199 181.191 624.699 181.211C576.979 181.211 569.699 41.1409 640.769 39.2109C708.489 37.3709 699.769 117.501 699.769 117.501C699.769 117.501 711.959 110.411 716.389 117.791C720.819 125.171 700.589 137.541 700.589 137.541Z" fill="#FCD18B"/>
<path d="M669.24 44.4414C669.24 44.4414 668.47 68.6914 634.9 68.3214C605.75 68.0014 589.77 84.5014 588.21 96.3814" stroke="#3F3D56" stroke-width="3" stroke-miterlimit="10" stroke-linecap="round"/>
<path d="M761.29 92.3307C761.29 118.751 729.4 141.591 694.09 157.091C692 158.011 688.62 158.221 684.34 157.881C690.791 151.996 696.275 145.132 700.59 137.541C700.59 137.541 720.7 125.001 716.35 117.791C712 110.581 699.73 117.491 699.73 117.491C699.73 117.491 705.84 61.6407 668.45 44.2907C668.16 44.8307 658.45 61.9507 629.75 62.8607C602.45 63.7107 595 74.1207 591.88 85.0007C591.78 85.3807 591.68 85.7507 591.59 86.1307C588.072 100.603 587.231 115.596 589.11 130.371L588.95 130.311C586.3 127.091 550.09 81.2007 559.54 56.5907C569.81 29.8407 635.45 -7.88933 688 1.45067C717.35 6.68067 761.28 78.4407 761.29 92.3307Z" fill="#3F3D56"/>
<path d="M523.28 471H120.53C115.003 470.992 109.618 469.251 105.133 466.022C100.648 462.793 97.2895 458.238 95.5296 453L10.1697 198.83C9.23198 196.037 8.97236 193.06 9.41223 190.147C9.8521 187.234 10.9788 184.467 12.6994 182.075C14.4199 179.684 16.6848 177.736 19.307 176.392C21.9292 175.049 24.8334 174.349 27.7797 174.35H430.53C436.056 174.358 441.44 176.1 445.925 179.329C450.409 182.558 453.769 187.112 455.53 192.35L540.84 446.46C541.788 449.252 542.057 452.23 541.625 455.148C541.194 458.065 540.073 460.838 538.357 463.236C536.641 465.634 534.378 467.589 531.756 468.94C529.135 470.29 526.229 470.996 523.28 471V471Z" fill="#977E8B"/>
<path d="M514.09 480.911H111.33C105.803 480.903 100.418 479.162 95.9334 475.933C91.4485 472.704 88.0896 468.149 86.3297 462.911L0.999729 208.791C0.0623296 205.998 -0.197418 203.023 0.241935 200.111C0.681287 197.198 1.80713 194.432 3.52652 192.04C5.2459 189.649 7.50949 187.701 10.1304 186.357C12.7513 185.013 15.6543 184.311 18.5997 184.311H421.34C426.866 184.318 432.251 186.059 436.736 189.288C441.221 192.517 444.58 197.072 446.34 202.311L531.66 456.431C532.596 459.22 532.856 462.193 532.419 465.103C531.981 468.013 530.858 470.778 529.142 473.169C527.426 475.559 525.166 477.508 522.549 478.854C519.932 480.2 517.033 480.905 514.09 480.911Z" fill="#3F3D56"/>
<path d="M523.28 470.18H120.53C115.003 470.174 109.617 468.434 105.132 465.205C100.647 461.975 97.2882 457.42 95.5296 452.18L10.1697 198.06C9.23198 195.267 8.97236 192.291 9.41223 189.378C9.8521 186.464 10.9788 183.698 12.6994 181.306C14.4199 178.914 16.6848 176.966 19.307 175.623C21.9292 174.279 24.8334 173.579 27.7797 173.58H430.53C436.056 173.589 441.44 175.33 445.925 178.559C450.409 181.788 453.769 186.342 455.53 191.58L540.88 445.7C541.817 448.492 542.077 451.468 541.637 454.38C541.198 457.293 540.072 460.059 538.353 462.45C536.633 464.842 534.37 466.79 531.749 468.134C529.128 469.478 526.225 470.179 523.28 470.18V470.18Z" stroke="#FE519E" stroke-width="6" stroke-miterlimit="10"/>
<path d="M349.08 390.529L379.72 466.779H313.5C313.5 466.779 326.37 407.129 349.08 390.529Z" fill="#977E8B"/>
<path d="M393.119 562.41C262.729 562.41 317.559 422.88 343.489 393.9H243.139C217.219 422.9 147.069 570.07 277.449 570.07H393.119V562.41Z" fill="#3F3D56" stroke="#FE519E" stroke-width="6" stroke-miterlimit="10"/>
<path d="M282.433 327.396C288.052 318.495 283.516 305.541 272.303 298.463C261.09 291.385 247.445 292.863 241.826 301.765C236.207 310.667 240.743 323.621 251.956 330.698C263.169 337.776 276.815 336.298 282.433 327.396Z" fill="#977E8B"/>
<path d="M288.838 321.994C294.457 313.092 289.922 300.138 278.708 293.06C267.495 285.983 253.85 287.461 248.231 296.363C242.612 305.264 247.148 318.218 258.361 325.296C269.575 332.374 283.22 330.896 288.838 321.994Z" stroke="#FE519E" stroke-width="6" stroke-miterlimit="10"/>
<path d="M93.75 570.07H690.92C699.7 570.07 706.82 576.71 706.82 584.91C706.82 593.1 699.7 599.74 690.92 599.74H93.75V570.07Z" fill="#3F3D56"/>
<path d="M93.75 570.07H690.92C699.7 570.07 706.82 576.71 706.82 584.91C706.82 593.1 699.7 599.74 690.92 599.74H93.75" stroke="#FE519E" stroke-width="6" stroke-miterlimit="10"/>
</svg>
