<svg width="805" height="579" viewBox="0 0 805 579" fill="none" xmlns="http://www.w3.org/2000/svg">
<g clip-path="url(#clip0)">
<path d="M341.5 270H16.5C12.1254 269.995 7.93148 268.255 4.8382 265.162C1.74492 262.069 0.00494149 257.875 0 253.5V16.5C0.00494413 12.1254 1.74492 7.93147 4.8382 4.8382C7.93147 1.74492 12.1254 0.00494413 16.5 0H341.5C345.875 0.00494149 350.069 1.74492 353.162 4.8382C356.255 7.93148 357.995 12.1254 358 16.5V253.5C357.995 257.875 356.255 262.069 353.162 265.162C350.069 268.255 345.875 269.995 341.5 270V270Z" fill="#E6E6E6"/>
<path d="M318.63 269.5H316.4L281.96 200.12L280.96 198.12L255.49 146.8L212.33 59.85L211.34 57.85L182.87 0.5H185.11L213.57 57.85L214.57 59.85L256.63 144.59L257.62 146.59L283.08 197.87L318.63 269.5Z" fill="white"/>
<path d="M357.5 57.8555H0.5V59.8555H357.5V57.8555Z" fill="white"/>
<path d="M357.5 144.596H255.919V146.596H357.5V144.596Z" fill="white"/>
<path d="M97.5156 0.5H95.5156V270.5H97.5156V0.5Z" fill="white"/>
<path d="M282.578 198.117H96.5156V200.117H282.578V198.117Z" fill="white"/>
<path d="M213 106C213 123.046 187.932 171.114 178.517 188.566C178.175 189.201 177.668 189.732 177.048 190.102C176.429 190.472 175.721 190.667 175 190.667C174.279 190.667 173.571 190.472 172.952 190.102C172.332 189.732 171.825 189.201 171.483 188.566C162.068 171.114 137 123.046 137 106C137 95.9218 141.004 86.2563 148.13 79.1299C155.256 72.0036 164.922 68 175 68C185.078 68 194.744 72.0036 201.87 79.1299C208.996 86.2563 213 95.9218 213 106V106Z" fill="#FE519E"/>
<path d="M175 123C184.389 123 192 115.389 192 106C192 96.6112 184.389 89 175 89C165.611 89 158 96.6112 158 106C158 115.389 165.611 123 175 123Z" fill="#E6E6E6"/>
<path d="M175 207C178.866 207 182 203.866 182 200C182 196.134 178.866 193 175 193C171.134 193 168 196.134 168 200C168 203.866 171.134 207 175 207Z" fill="#FE519E"/>
<path d="M175.27 304.859C167.609 304.858 160.119 307.129 153.748 311.385C147.378 315.641 142.412 321.691 139.48 328.769C136.547 335.847 135.78 343.636 137.274 351.15C138.769 358.664 142.458 365.567 147.875 370.984C153.293 376.402 160.195 380.091 167.71 381.585C175.224 383.08 183.013 382.312 190.091 379.38C197.169 376.448 203.218 371.482 207.474 365.111C211.73 358.741 214.001 351.251 214 343.589C213.988 333.321 209.904 323.477 202.643 316.216C195.383 308.956 185.538 304.871 175.27 304.859V304.859ZM175.27 380.189C168.032 380.19 160.957 378.045 154.938 374.025C148.92 370.005 144.228 364.29 141.458 357.603C138.687 350.917 137.961 343.559 139.372 336.46C140.783 329.361 144.268 322.84 149.385 317.721C154.502 312.603 161.022 309.117 168.121 307.704C175.219 306.291 182.578 307.014 189.265 309.783C195.952 312.552 201.668 317.242 205.69 323.259C209.712 329.277 211.859 336.352 211.86 343.589C211.849 353.291 207.99 362.592 201.131 369.453C194.272 376.314 184.972 380.175 175.27 380.189V380.189Z" fill="#E6E6E6"/>
<path d="M194.33 325.02C193.275 324.211 191.941 323.855 190.623 324.03C189.304 324.204 188.109 324.895 187.3 325.95L170.02 348.48L162.71 342.88C162.188 342.477 161.591 342.181 160.954 342.009C160.317 341.838 159.652 341.793 158.998 341.879C158.344 341.964 157.713 342.178 157.142 342.508C156.57 342.838 156.069 343.277 155.668 343.801C155.267 344.324 154.973 344.922 154.803 345.56C154.633 346.197 154.591 346.862 154.678 347.516C154.766 348.17 154.981 348.8 155.313 349.37C155.644 349.941 156.085 350.44 156.61 350.84L167.9 359.48L167.95 359.52C168.815 360.17 169.868 360.521 170.95 360.52C171.721 360.52 172.482 360.344 173.173 360.004C173.865 359.664 174.469 359.17 174.94 358.56L195.26 332.05C196.068 330.994 196.424 329.661 196.25 328.343C196.076 327.024 195.385 325.829 194.33 325.02V325.02Z" fill="#FE519E"/>
<path d="M550.75 421.38L541.1 398.5L532.82 378.869L526.05 362.81C524.842 359.959 522.554 357.703 519.686 356.537C516.817 355.371 513.604 355.39 510.75 356.589L418.71 395.419C415.866 396.633 413.617 398.92 412.452 401.784C411.287 404.648 411.301 407.856 412.49 410.709L437.2 469.279C437.795 470.692 438.663 471.974 439.754 473.051C440.844 474.128 442.137 474.98 443.557 475.557C444.976 476.135 446.496 476.427 448.029 476.417C449.562 476.407 451.078 476.095 452.49 475.5L544.53 436.679C547.381 435.472 549.637 433.183 550.803 430.315C551.969 427.447 551.95 424.234 550.75 421.38V421.38ZM543.52 434.289L451.49 473.109C449.271 474.045 446.772 474.062 444.541 473.157C442.309 472.251 440.529 470.497 439.59 468.279L414.88 409.709C414.107 407.878 413.963 405.842 414.47 403.919C414.684 403.059 415.028 402.236 415.49 401.479C416.477 399.84 417.958 398.556 419.72 397.81L511.76 358.989C513.633 358.198 515.719 358.06 517.68 358.599C518.533 358.828 519.345 359.185 520.09 359.659C521.68 360.642 522.925 362.096 523.65 363.819L530.73 380.609V380.619L538.4 398.789L548.36 422.389C549.295 424.609 549.311 427.11 548.403 429.341C547.496 431.573 545.739 433.353 543.52 434.289L543.52 434.289Z" fill="#CCCCCC"/>
<path d="M480.905 415.728C478.448 416.77 475.729 417.032 473.118 416.478L413.314 403.67L413.858 401.134L473.661 413.941C475.725 414.375 477.872 414.176 479.821 413.372C481.77 412.567 483.432 411.194 484.59 409.432L518.574 357.234L520.748 358.651L486.764 410.848C485.342 413.022 483.301 414.722 480.905 415.728V415.728Z" fill="#CCCCCC"/>
<path d="M480.772 431.272C489.369 431.272 496.339 424.302 496.339 415.704C496.339 407.107 489.369 400.137 480.772 400.137C472.174 400.137 465.204 407.107 465.204 415.704C465.204 424.302 472.174 431.272 480.772 431.272Z" fill="#FE519E"/>
<path d="M652.28 263.819C652.28 263.819 632.027 251.028 612.839 265.951L600.047 399.199C600.047 399.199 648.016 436.508 659.742 401.331L652.28 263.819Z" fill="#FE519E"/>
<path d="M657.225 566.679H669.485L673.568 519.563L657.223 519.391L657.225 566.679Z" fill="#FFB8B8"/>
<path d="M693.129 578.062L654.599 578.064L654.598 563.177L678.242 563.176C682.19 563.176 685.977 564.744 688.769 567.536C691.561 570.328 693.129 574.114 693.129 578.062V578.062V578.062Z" fill="#2F2E41"/>
<path d="M612.912 566.679H600.652L594.819 519.391H612.914L612.912 566.679Z" fill="#FFB8B8"/>
<path d="M591.895 563.176H615.539V578.063H577.008C577.008 574.114 578.576 570.328 581.368 567.536C584.16 564.744 587.946 563.176 591.895 563.176V563.176Z" fill="#2F2E41"/>
<path d="M683.727 399.732L673.067 558.563L656.545 558.03L634.692 430.646L614.438 556.431L595.251 557.497L589.921 393.336C589.921 393.336 670.935 375.215 683.727 399.732Z" fill="#2F2E41"/>
<path d="M633.427 250.337C646.991 250.337 657.988 239.341 657.988 225.776C657.988 212.211 646.991 201.215 633.427 201.215C619.862 201.215 608.866 212.211 608.866 225.776C608.866 239.341 619.862 250.337 633.427 250.337Z" fill="#FFB8B8"/>
<path d="M648.55 259.023L654.946 263.287C654.946 263.287 681.595 263.287 683.727 279.277C685.859 295.267 691.722 404.53 685.326 404.53C678.93 404.53 677.864 396.002 677.864 396.002C677.864 396.002 673.6 397.068 665.072 405.595C656.545 414.123 651.215 414.123 648.017 401.332C644.819 388.54 623.499 290.47 643.753 272.348L648.55 259.023Z" fill="#2F2E41"/>
<path d="M617.636 259.023L611.24 263.287C611.24 263.287 584.591 263.287 582.459 279.277C580.327 295.267 574.464 404.53 580.86 404.53C587.256 404.53 588.322 396.002 588.322 396.002C588.322 396.002 592.586 397.068 601.113 405.595C609.641 414.123 614.971 414.123 618.169 401.332C621.367 388.54 642.687 290.47 622.433 272.348L617.636 259.023Z" fill="#2F2E41"/>
<path d="M653.355 240.752C655.181 238.827 656.393 236.404 656.837 233.789C657.281 231.174 656.938 228.486 655.85 226.067C654.762 223.648 652.98 221.607 650.729 220.204C648.478 218.801 645.861 218.099 643.21 218.187C639.813 218.301 636.613 219.691 633.372 220.711C628.459 222.382 623.219 222.854 618.087 222.087C612.924 221.286 608.266 218.535 605.07 214.402C602.032 210.225 601.084 204.432 603.231 199.734C605.709 194.311 611.498 191.323 616.944 188.895C619.141 187.795 621.486 187.024 623.907 186.607C625.119 186.406 626.36 186.457 627.552 186.757C628.744 187.058 629.861 187.601 630.833 188.353C632.364 189.669 633.261 191.648 634.926 192.789C636.801 194.073 639.236 194.039 641.497 194.265C646.59 194.775 651.407 196.823 655.307 200.137C659.207 203.452 662.006 207.875 663.331 212.818C664.657 217.762 664.445 222.992 662.726 227.813C661.006 232.634 657.859 236.816 653.704 239.805L653.355 240.752Z" fill="#2F2E41"/>
<path d="M528.057 390.211C527.724 388.676 527.733 387.087 528.081 385.556C528.429 384.024 529.108 382.588 530.072 381.347C531.035 380.107 532.259 379.093 533.656 378.377C535.054 377.66 536.592 377.259 538.161 377.201L554.479 354.217L564.997 364.93L549.424 388.31C549.346 390.953 548.302 393.476 546.488 395.4C544.675 397.325 542.218 398.517 539.585 398.751C536.951 398.986 534.323 398.246 532.198 396.672C530.074 395.098 528.6 392.799 528.057 390.211V390.211Z" fill="#FFB8B8"/>
<path d="M672.692 411.195C671.544 410.124 670.644 408.814 670.056 407.358C669.468 405.901 669.207 404.334 669.29 402.766C669.374 401.197 669.8 399.666 670.539 398.281C671.278 396.895 672.312 395.688 673.568 394.745L673.857 366.559L688.608 369.357L689.156 397.443C690.6 399.658 691.182 402.326 690.79 404.941C690.399 407.556 689.062 409.937 687.032 411.632C685.003 413.327 682.422 414.219 679.779 414.138C677.136 414.057 674.615 413.01 672.692 411.195V411.195Z" fill="#FFB8B8"/>
<path d="M590.387 344.619L586.19 277.678L585 273C585 273 542.568 327.563 542.469 368.611C542.469 368.611 563.256 378.737 566.454 371.275C567.71 368.345 572 364 590.387 344.619V344.619Z" fill="#2F2E41"/>
<path d="M679.996 277.678L683.831 280.108C683.831 280.108 697.568 340.563 693.854 381.078C693.854 381.078 672.001 391.204 668.803 383.743C665.605 376.281 679.996 277.678 679.996 277.678Z" fill="#2F2E41"/>
<path d="M803.114 578H422.114C421.849 578 421.595 577.895 421.407 577.707C421.22 577.52 421.114 577.265 421.114 577C421.114 576.735 421.22 576.48 421.407 576.293C421.595 576.105 421.849 576 422.114 576H803.114C803.379 576 803.634 576.105 803.821 576.293C804.009 576.48 804.114 576.735 804.114 577C804.114 577.265 804.009 577.52 803.821 577.707C803.634 577.895 803.379 578 803.114 578Z" fill="#3F3D56"/>
</g>
<defs>
<clipPath id="clip0">
<rect width="804.114" height="578.063" fill="white"/>
</clipPath>
</defs>
</svg>
